<svg id="_001-ppt" data-name="001-ppt" xmlns="http://www.w3.org/2000/svg" width="38.889" height="52" viewBox="0 0 38.889 52">
  <g id="Vrstva_x0020_1_18_" transform="translate(0 0)">
    <path id="Tracé_12935" data-name="Tracé 12935" d="M106.543,0h17.385l14.735,15.358V45.23A6.762,6.762,0,0,1,131.906,52H106.543a6.765,6.765,0,0,1-6.77-6.77V6.77A6.765,6.765,0,0,1,106.543,0Z" transform="translate(-99.773 0)" fill="#e03303" fill-rule="evenodd"/>
    <g id="Groupe_4409" data-name="Groupe 4409" transform="translate(8.173 0)">
      <path id="Tracé_12936" data-name="Tracé 12936" d="M467.219,0V15.241h14.748Z" transform="translate(-451.25)" fill="#fff" fill-rule="evenodd" opacity="0.302"/>
      <path id="Tracé_12937" data-name="Tracé 12937" d="M224.166,431.871v-9.446h4.015a3.338,3.338,0,0,1,2.378.832,3.17,3.17,0,0,1,0,4.392,3.39,3.39,0,0,1-2.378.819H226.57v3.4Zm2.4-5.457h1.338a1.284,1.284,0,0,0,.845-.247.9.9,0,0,0,.286-.715.885.885,0,0,0-.286-.715,1.286,1.286,0,0,0-.845-.26H226.57Zm5.886,5.457v-9.446h4.015a3.338,3.338,0,0,1,2.378.832,3.17,3.17,0,0,1,0,4.392,3.39,3.39,0,0,1-2.378.819h-1.6v3.4Zm2.417-5.457H236.2a1.26,1.26,0,0,0,.845-.247.912.912,0,0,0,.3-.715.893.893,0,0,0-.3-.715,1.262,1.262,0,0,0-.845-.26h-1.325Zm8.329,5.457v-7.393h-2.69v-2.053h7.809v2.053h-2.7v7.393Z" transform="translate(-224.166 -394.671)" fill="#fff"/>
    </g>
  </g>
</svg>
