<svg id="_002-xls" data-name="002-xls" xmlns="http://www.w3.org/2000/svg" width="38.889" height="52.004" viewBox="0 0 38.889 52.004">
  <g id="Vrstva_x0020_1_30_" transform="translate(0 0)">
    <path id="Tracé_12938" data-name="Tracé 12938" d="M106.556,0h17.4l14.728,15.373V45.228A6.764,6.764,0,0,1,131.931,52H106.556A6.776,6.776,0,0,1,99.8,45.228V6.757A6.772,6.772,0,0,1,106.556,0Z" transform="translate(-99.799 0)" fill="#00733b" fill-rule="evenodd"/>
    <g id="Groupe_4410" data-name="Groupe 4410" transform="translate(7.649 0)">
      <path id="Tracé_12939" data-name="Tracé 12939" d="M467.218,0V15.241h14.747Z" transform="translate(-450.725)" fill="#fff" fill-rule="evenodd" opacity="0.302"/>
      <path id="Tracé_12940" data-name="Tracé 12940" d="M224.728,440.515H222.2l-1.727-2.9-1.727,2.9h-2.543l3-5.049-2.638-4.384h2.543l1.367,2.278,1.348-2.278h2.543l-2.619,4.4Zm.892,0v-9.433h2.41v7.383h4.1v2.05h-6.51Zm10.5.114a3.856,3.856,0,0,1-2.505-.892,2.947,2.947,0,0,1-1.158-2.145l2.069-.607a1.874,1.874,0,0,0,.569,1.158,1.674,1.674,0,0,0,1.139.456,1.507,1.507,0,0,0,.854-.228.732.732,0,0,0,.323-.607.693.693,0,0,0-.266-.531,2.414,2.414,0,0,0-.664-.342,8.776,8.776,0,0,0-.911-.266,6.357,6.357,0,0,1-1.006-.361,3.543,3.543,0,0,1-.911-.512,1.975,1.975,0,0,1-.664-.835,2.751,2.751,0,0,1-.266-1.234,2.342,2.342,0,0,1,.987-1.936,3.7,3.7,0,0,1,2.391-.778,4.434,4.434,0,0,1,2.429.664,2.9,2.9,0,0,1,1.291,1.765l-2.164.911a1.889,1.889,0,0,0-.55-.968,1.515,1.515,0,0,0-1.006-.361,1.35,1.35,0,0,0-.721.19.556.556,0,0,0-.247.493.583.583,0,0,0,.342.493,3.167,3.167,0,0,0,.873.266,7.478,7.478,0,0,1,1.12.285,6.919,6.919,0,0,1,1.139.512,2.273,2.273,0,0,1,.854.93,3.07,3.07,0,0,1,.361,1.537,2.573,2.573,0,0,1-1.025,2.126A4.242,4.242,0,0,1,236.116,440.629Z" transform="translate(-216.206 -402.65)" fill="#fff"/>
    </g>
  </g>
</svg>
