<svg id="_003-doc" data-name="003-doc" xmlns="http://www.w3.org/2000/svg" width="38.889" height="51.997" viewBox="0 0 38.889 51.997">
  <g id="Vrstva_x0020_1_4_" transform="translate(0 0)">
    <path id="Tracé_12941" data-name="Tracé 12941" d="M106.523,0h17.4l14.727,15.365V45.233A6.764,6.764,0,0,1,131.884,52H106.523a6.764,6.764,0,0,1-6.764-6.764V6.764A6.764,6.764,0,0,1,106.523,0Z" transform="translate(-99.759 0)" fill="#0263d1"/>
    <g id="Groupe_4411" data-name="Groupe 4411" transform="translate(6.281 0)">
      <path id="Tracé_12942" data-name="Tracé 12942" d="M467.212,0V15.239H481.96Z" transform="translate(-449.352)" fill="#fff" fill-rule="evenodd" opacity="0.302"/>
      <path id="Tracé_12943" data-name="Tracé 12943" d="M195.356,440.922v-8.608h3.049a5.557,5.557,0,0,1,1.7.259,4.684,4.684,0,0,1,1.43.764,3.414,3.414,0,0,1,1.009,1.346,5.223,5.223,0,0,1,0,3.869,3.414,3.414,0,0,1-1.009,1.346,4.685,4.685,0,0,1-1.43.764,5.558,5.558,0,0,1-1.7.259Zm2.152-1.872h.638a3.7,3.7,0,0,0,.953-.119,2.725,2.725,0,0,0,.813-.393,1.705,1.705,0,0,0,.589-.757,2.8,2.8,0,0,0,.217-1.164,2.862,2.862,0,0,0-.217-1.171,1.723,1.723,0,0,0-.589-.75,2.568,2.568,0,0,0-.813-.393,3.7,3.7,0,0,0-.953-.119h-.638Zm10.634,1.97a4.4,4.4,0,0,1-3.217-1.255,4.538,4.538,0,0,1,0-6.295,4.4,4.4,0,0,1,3.217-1.255,4.355,4.355,0,0,1,3.182,1.255,4.556,4.556,0,0,1,0,6.295A4.355,4.355,0,0,1,208.141,441.02Zm-1.654-2.587a2.231,2.231,0,0,0,3.273,0,2.9,2.9,0,0,0,0-3.631,2.231,2.231,0,0,0-3.273,0,2.878,2.878,0,0,0,0,3.631ZM217.7,441.02a4.415,4.415,0,0,1-3.126-1.164,4.8,4.8,0,0,1,.014-6.47,4.426,4.426,0,0,1,3.112-1.171,4.374,4.374,0,0,1,2.748.827,3.092,3.092,0,0,1,1.234,2.187l-2.173.442a1.946,1.946,0,0,0-.645-1.15,1.76,1.76,0,0,0-1.178-.435,2.02,2.02,0,0,0-1.542.659,3.123,3.123,0,0,0-.007,3.736,2.007,2.007,0,0,0,1.549.666,1.787,1.787,0,0,0,1.15-.378,1.661,1.661,0,0,0,.6-1.009l2.222.5a3.267,3.267,0,0,1-1.353,2.026A4.445,4.445,0,0,1,217.7,441.02Z" transform="translate(-195.356 -403.82)" fill="#fff"/>
    </g>
  </g>
</svg>
