<svg id="_004-pdf" data-name="004-pdf" xmlns="http://www.w3.org/2000/svg" width="38.889" height="52" viewBox="0 0 38.889 52">
  <g id="Vrstva_x0020_1_15_" transform="translate(0 0)">
    <path id="Tracé_12944" data-name="Tracé 12944" d="M106.543,0h17.385l14.735,15.358V45.23A6.762,6.762,0,0,1,131.906,52H106.543a6.765,6.765,0,0,1-6.77-6.77V6.77A6.765,6.765,0,0,1,106.543,0Z" transform="translate(-99.773 0)" fill="#e5252a" fill-rule="evenodd"/>
    <g id="Groupe_4412" data-name="Groupe 4412" transform="translate(7.523 0)">
      <path id="Tracé_12945" data-name="Tracé 12945" d="M467.219,0V15.241h14.748Z" transform="translate(-450.6)" fill="#fff" fill-rule="evenodd" opacity="0.302"/>
      <path id="Tracé_12946" data-name="Tracé 12946" d="M214.278,455.457v-9.5h4.041a3.349,3.349,0,0,1,2.391.832,3.169,3.169,0,0,1,0,4.418,3.349,3.349,0,0,1-2.391.832h-1.611v3.417Zm2.43-5.483h1.338a1.2,1.2,0,0,0,.845-.26,1,1,0,0,0,0-1.429,1.2,1.2,0,0,0-.845-.26h-1.338Zm5.9,5.483v-9.5h3.365a5.876,5.876,0,0,1,1.871.286,5.029,5.029,0,0,1,1.585.845,3.73,3.73,0,0,1,1.117,1.481,5.872,5.872,0,0,1,0,4.275,3.73,3.73,0,0,1-1.117,1.481,5.031,5.031,0,0,1-1.585.845,5.879,5.879,0,0,1-1.871.286Zm2.378-2.066h.7a3.893,3.893,0,0,0,1.052-.13,3.156,3.156,0,0,0,.9-.429,1.926,1.926,0,0,0,.65-.832,3.69,3.69,0,0,0,0-2.586,1.926,1.926,0,0,0-.65-.832,3.153,3.153,0,0,0-.9-.429,3.893,3.893,0,0,0-1.052-.13h-.7Zm7.185,2.066v-9.5h6.757v2.066H234.6v1.52h3.456V451.6H234.6v3.859Z" transform="translate(-214.278 -416.659)" fill="#fff"/>
    </g>
  </g>
</svg>
