<svg id="_005-txt" data-name="005-txt" xmlns="http://www.w3.org/2000/svg" width="38.889" height="51.999" viewBox="0 0 38.889 51.999">
  <g id="Vrstva_x0020_1_25_" transform="translate(0 0)">
    <path id="Tracé_12947" data-name="Tracé 12947" d="M106.542,0h17.385l14.734,15.358V45.23A6.762,6.762,0,0,1,131.906,52H106.542a6.765,6.765,0,0,1-6.77-6.77V6.769A6.765,6.765,0,0,1,106.542,0Z" transform="translate(-99.773 0)" fill="#251d36" fill-rule="evenodd"/>
    <g id="Groupe_4413" data-name="Groupe 4413" transform="translate(7.12 0)">
      <path id="Tracé_12948" data-name="Tracé 12948" d="M467.219,0V15.241h14.748Z" transform="translate(-450.198)" fill="#fff" fill-rule="evenodd" opacity="0.302"/>
      <path id="Tracé_12949" data-name="Tracé 12949" d="M210.85,443.539v-7.393h-2.7v-2.053h7.809v2.053h-2.69v7.393Zm13.89,0h-2.534l-1.728-2.9-1.728,2.9H216.2l3-5.041-2.625-4.4h2.534l1.364,2.287,1.351-2.287h2.547l-2.625,4.418Zm2.937,0v-7.393h-2.69v-2.053H232.8v2.053h-2.7v7.393Z" transform="translate(-208.147 -405.572)" fill="#fff"/>
    </g>
  </g>
</svg>
