<svg id="Groupe_4294" data-name="Groupe 4294" xmlns="http://www.w3.org/2000/svg" width="17.501" height="15" viewBox="0 0 17.501 15">
  <g id="Tracé_12872" data-name="Tracé 12872" transform="translate(-2.212 -0.426)" fill="none" stroke-linecap="round" stroke-linejoin="round">
    <path d="M18.812,5.745A3.661,3.661,0,0,0,16.05,4.49H13.131L13.377,3A2.223,2.223,0,0,0,9.19,1.662L8,4.065V15.426h7.538a3.672,3.672,0,0,0,3.623-3.135l.516-3.645a3.632,3.632,0,0,0-.866-2.9Z" stroke="none"/>
    <path d="M 11.18409729003906 1.425926208496094 C 10.72133636474609 1.425926208496094 10.29049682617188 1.692676544189453 10.08606719970703 2.106356620788574 L 8.999996185302734 4.298867225646973 L 8.999996185302734 14.42581748962402 L 15.53391647338867 14.42582607269287 C 16.17551612854004 14.4232063293457 16.79547691345215 14.191086769104 17.27959632873535 13.77222633361816 C 17.76282691955566 13.3541259765625 18.0797061920166 12.77664661407471 18.17122650146484 12.15068626403809 L 18.6871166229248 8.505796432495117 C 18.79412651062012 7.747226238250732 18.56532669067383 6.980986595153809 18.05746650695801 6.401326179504395 C 17.55292510986328 5.822076797485352 16.82160568237305 5.489846229553223 16.05027770996094 5.489806175231934 L 13.13095664978027 5.489806175231934 C 12.83724689483643 5.489806175231934 12.55838680267334 5.360686302185059 12.36838626861572 5.136706352233887 C 12.17837619781494 4.912726402282715 12.09644603729248 4.616546630859375 12.14433670043945 4.326766014099121 L 12.39036655426025 2.837985992431641 C 12.48808670043945 2.249396324157715 12.1306266784668 1.66762638092041 11.55887603759766 1.484736442565918 C 11.43688583374023 1.445716857910156 11.31078720092773 1.425926208496094 11.18409729003906 1.425926208496094 M 11.18409156799316 0.4259281158447266 C 11.40977668762207 0.4259281158447266 11.63870620727539 0.4603548049926758 11.86354637145996 0.5322761535644531 C 12.91275691986084 0.8678960800170898 13.55668640136719 1.918705940246582 13.37685680389404 3.001776695251465 L 13.13095664978027 4.489806175231934 L 16.05027770996094 4.489806175231934 C 17.1086540222168 4.49056339263916 18.1171760559082 4.947356224060059 18.81152725219727 5.744525909423828 C 19.50897598266602 6.540555953979492 19.82491683959961 7.599165916442871 19.67730712890625 8.645486831665039 L 19.16135787963867 12.29082679748535 C 18.8990478515625 14.08526611328125 17.35823631286621 15.41839599609375 15.53799629211426 15.42581653594971 L 7.999996185302734 15.42581653594971 L 7.999996185302734 4.064756393432617 L 9.189975738525391 1.662476539611816 C 9.572395324707031 0.8886346817016602 10.35662078857422 0.4259281158447266 11.18409156799316 0.4259281158447266 Z" stroke="none" fill="#4ad3b0"/>
  </g>
  <g id="Tracé_12873" data-name="Tracé 12873" transform="translate(0 -1.978)" fill="none" stroke-linecap="round" stroke-linejoin="round">
    <path d="M0,9.659v3.659a3.664,3.664,0,0,0,3.659,3.659h.732V6H3.659A3.664,3.664,0,0,0,0,9.659Z" stroke="none"/>
    <path d="M 3.391061782836914 7.013869285583496 C 2.05176854133606 7.150943756103516 1.001643180847168 8.286086082458496 1.000001907348633 9.659220695495605 L 1.000001907348633 13.31724071502686 C 1.001643657684326 14.69185829162598 2.052260160446167 15.82729911804199 3.391061782836914 15.96389293670654 L 3.391061782836914 7.013869285583496 M 3.659221887588501 6 L 4.391061782836914 6 L 4.391061782836914 16.9776611328125 L 3.659221887588501 16.9776611328125 C 1.639291763305664 16.97524070739746 0.002421855926513672 15.33837127685547 1.9073486328125e-06 13.31844043731689 L 1.9073486328125e-06 9.659220695495605 C 0.002421855926513672 7.639290809631348 1.639291763305664 6.002420425415039 3.659221887588501 6 Z" stroke="none" fill="#4ad3b0"/>
  </g>
</svg>
