<svg xmlns="http://www.w3.org/2000/svg" width="17.356" height="15.909" viewBox="0 0 17.356 15.909">
  <path id="fi-rr-book-alt" d="M16.054,1.841a3.61,3.61,0,0,0-2.965-.782l-2.764.5a2.893,2.893,0,0,0-1.647.932,2.893,2.893,0,0,0-1.652-.932l-2.76-.5A3.616,3.616,0,0,0,0,4.616v7.8a3.616,3.616,0,0,0,2.968,3.557l4.546.827a6.508,6.508,0,0,0,2.327,0l4.549-.827a3.616,3.616,0,0,0,2.965-3.557v-7.8A3.6,3.6,0,0,0,16.054,1.841Zm-8.1,13.57c-.061-.009-.121-.019-.182-.03l-4.545-.826a2.169,2.169,0,0,1-1.781-2.135v-7.8A2.169,2.169,0,0,1,3.616,2.446a2.228,2.228,0,0,1,.391.035l2.762.506a1.446,1.446,0,0,1,1.186,1.42Zm7.955-2.99a2.17,2.17,0,0,1-1.781,2.135l-4.545.826c-.061.011-.121.021-.182.03v-11a1.446,1.446,0,0,1,1.188-1.423l2.763-.506a2.169,2.169,0,0,1,2.558,2.138Z" transform="translate(0 -1)" fill="#0e1226"/>
</svg>
