<svg xmlns="http://www.w3.org/2000/svg" width="15.212" height="15" viewBox="0 0 15.212 15">
  <g id="comment-alt-middle_1_" data-name="comment-alt-middle (1)" transform="translate(0)" fill="none" stroke-linecap="round" stroke-linejoin="round">
    <path d="M7.612,15a1.274,1.274,0,0,1-.848-.322l-2.376-2H2.535A2.538,2.538,0,0,1,0,10.142V2.535A2.538,2.538,0,0,1,2.535,0H12.677a2.538,2.538,0,0,1,2.535,2.535v7.606a2.538,2.538,0,0,1-2.535,2.535H10.869L8.431,14.693A1.228,1.228,0,0,1,7.612,15Z" stroke="none"/>
    <path d="M 7.611879348754883 14 C 7.646649360656738 14 7.712789058685303 13.99302959442139 7.765159130096436 13.94631004333496 C 7.774519443511963 13.93797016143799 7.784029006958008 13.92980003356934 7.793689250946045 13.92181968688965 L 10.23209953308105 11.90618991851807 C 10.41134929656982 11.7580099105835 10.6366491317749 11.67695045471191 10.86921882629395 11.67695045471191 L 12.6769495010376 11.67695045471191 C 13.52356910705566 11.67695045471191 14.21233940124512 10.98818016052246 14.21233940124512 10.14155960083008 L 14.21233940124512 2.53538990020752 C 14.21233940124512 1.688770055770874 13.52356910705566 1 12.6769495010376 1 L 2.535389184951782 1 C 1.688769221305847 1 0.9999992251396179 1.688770055770874 0.9999992251396179 2.53538990020752 L 0.9999992251396179 10.14155960083008 C 0.9999992251396179 10.98818016052246 1.688769221305847 11.67695045471191 2.535389184951782 11.67695045471191 L 4.388129234313965 11.67695045471191 C 4.623879432678223 11.67695045471191 4.852049350738525 11.76023960113525 5.03235912322998 11.91211986541748 L 7.408019065856934 13.91318035125732 C 7.414969444274902 13.91903018951416 7.421839237213135 13.92498016357422 7.428619384765625 13.93101978302002 C 7.496059417724609 13.99104022979736 7.572389125823975 14 7.611879348754883 14 M 7.611879348754883 15 C 7.310159206390381 15 7.005919456481934 14.89350986480713 6.763789176940918 14.67800998687744 L 4.388129234313965 12.67695045471191 L 2.535389184951782 12.67695045471191 C 1.137119174003601 12.67695045471191 -7.76214619691018e-07 11.53983020782471 -7.76214619691018e-07 10.14155960083008 L -7.76214619691018e-07 2.53538990020752 C -7.76214619691018e-07 1.137120008468628 1.137119174003601 -8.881784197001252e-16 2.535389184951782 -8.881784197001252e-16 L 12.6769495010376 -8.881784197001252e-16 C 14.07521915435791 -8.881784197001252e-16 15.21233940124512 1.137120008468628 15.21233940124512 2.53538990020752 L 15.21233940124512 10.14155960083008 C 15.21233940124512 11.53983020782471 14.07521915435791 12.67695045471191 12.6769495010376 12.67695045471191 L 10.86921882629395 12.67695045471191 L 8.430809020996094 14.6925802230835 C 8.20198917388916 14.89667987823486 7.90787935256958 15 7.611879348754883 15 Z" stroke="none" fill="#4ad3b0"/>
  </g>
</svg>
