<svg width="77" height="76" viewBox="0 0 77 76" fill="none" xmlns="http://www.w3.org/2000/svg">
<rect width="77" height="76" rx="10" fill="#DFEDE9"/>
<path d="M48.8915 38.4522C48.7689 38.3299 48.6235 38.2331 48.4637 38.1672C48.3038 38.1013 48.1326 38.0678 47.9599 38.0684C47.7871 38.069 47.6161 38.1038 47.4567 38.1708C47.2973 38.2378 47.1527 38.3357 47.0309 38.4588C46.9092 38.582 46.8128 38.7281 46.7472 38.8887C46.6817 39.0493 46.6483 39.2213 46.6489 39.3949C46.6495 39.5685 46.6841 39.7403 46.7508 39.9004C46.8175 40.0606 46.9149 40.206 47.0375 40.3283C48.1501 41.4344 49.0333 42.7512 49.636 44.2026C50.2386 45.654 50.5487 47.211 50.5483 48.7837C50.5483 50.3955 45.933 52.7471 38.7141 52.7471C31.4952 52.7471 26.8799 50.3955 26.8799 48.7837C26.8778 47.2214 27.1822 45.6741 27.7755 44.23C28.3689 42.786 29.2397 41.4736 30.3381 40.3679C30.583 40.1204 30.7205 39.7855 30.7205 39.4365C30.7205 39.0875 30.583 38.7526 30.3381 38.5051C30.0918 38.259 29.7585 38.1209 29.4111 38.1209C29.0637 38.1209 28.7305 38.259 28.4841 38.5051C27.1365 39.8516 26.0683 41.4534 25.3414 43.2179C24.6146 44.9823 24.2437 46.8741 24.2501 48.7837C24.2501 53.0774 31.7056 55.3894 38.7141 55.3894C45.7226 55.3894 53.1781 53.0774 53.1781 48.7837C53.1832 46.8617 52.8067 44.9581 52.0706 43.1841C51.3346 41.4101 50.2538 39.8015 48.8915 38.4522Z" fill="#94D0BF"/>
<path d="M38.7122 39.5352C40.5326 39.5352 42.3122 38.9928 43.8259 37.9767C45.3395 36.9605 46.5193 35.5161 47.2159 33.8262C47.9126 32.1364 48.0949 30.2769 47.7397 28.4829C47.3846 26.689 46.5079 25.0411 45.2207 23.7478C43.9334 22.4544 42.2934 21.5736 40.5079 21.2168C38.7224 20.8599 36.8717 21.0431 35.1898 21.743C33.5079 22.443 32.0704 23.6284 31.059 25.1492C30.0476 26.67 29.5078 28.4581 29.5078 30.2871C29.5078 32.7399 30.4776 35.0922 32.2037 36.8265C33.9299 38.5609 36.271 39.5352 38.7122 39.5352ZM38.7122 23.6814C40.0125 23.6814 41.2836 24.0688 42.3648 24.7946C43.446 25.5205 44.2887 26.5522 44.7863 27.7592C45.2839 28.9663 45.4141 30.2945 45.1604 31.5759C44.9067 32.8573 44.2806 34.0343 43.3611 34.9581C42.4416 35.882 41.2702 36.5111 39.9948 36.766C38.7195 37.0209 37.3976 36.8901 36.1962 36.3901C34.9949 35.8901 33.9681 35.0434 33.2456 33.9571C32.5232 32.8708 32.1376 31.5936 32.1376 30.2871C32.1376 28.5352 32.8303 26.855 34.0633 25.6162C35.2962 24.3773 36.9685 23.6814 38.7122 23.6814Z" fill="#94D0BF"/>
</svg>
