<svg xmlns="http://www.w3.org/2000/svg" width="11.876" height="15" viewBox="0 0 11.876 15">
  <path id="fi-rr-diploma" d="M8,7.5a.625.625,0,1,1,0,1.25H6.125a.625.625,0,1,1,0-1.25Zm3.75-1.875A.625.625,0,0,0,11.126,5h-5a.625.625,0,1,0,0,1.25h5A.625.625,0,0,0,11.751,5.625ZM6.125,3.75h5a.625.625,0,1,0,0-1.25h-5a.625.625,0,1,0,0,1.25Zm7.5,8.4v2.4a.451.451,0,0,1-.769.319l-.481-.48-.481.48a.451.451,0,0,1-.769-.319v-2.4A2.492,2.492,0,0,1,12.376,7.5,2.462,2.462,0,0,1,13,7.589V3.125A1.875,1.875,0,0,0,11.126,1.25h-5A1.875,1.875,0,0,0,4.25,3.125v7.5A1.875,1.875,0,0,0,6.125,12.5H9.25a.625.625,0,1,1,0,1.25H6.125A3.129,3.129,0,0,1,3,10.626v-7.5A3.129,3.129,0,0,1,6.125,0h5a3.129,3.129,0,0,1,3.125,3.125V8.364a2.469,2.469,0,0,1-.625,3.789Zm0-2.153a1.25,1.25,0,1,0-1.25,1.25A1.25,1.25,0,0,0,13.626,10Z" transform="translate(-3)" fill="#0e1226"/>
</svg>
