<svg xmlns="http://www.w3.org/2000/svg" width="35.628" height="45" viewBox="0 0 35.628 45">
  <path id="diploma" d="M18,22.5a1.875,1.875,0,1,1,0,3.75H12.376a1.875,1.875,0,1,1,0-3.75Zm11.251-5.625A1.875,1.875,0,0,0,27.377,15h-15a1.875,1.875,0,1,0,0,3.75h15A1.875,1.875,0,0,0,29.252,16.876ZM12.376,11.251h15a1.875,1.875,0,0,0,0-3.75h-15a1.875,1.875,0,1,0,0,3.75Zm22.5,25.209v7.187a1.352,1.352,0,0,1-2.308.956l-1.442-1.44L29.685,44.6a1.352,1.352,0,0,1-2.308-.956V36.46A7.476,7.476,0,0,1,31.127,22.5,7.386,7.386,0,0,1,33,22.768V9.376A5.625,5.625,0,0,0,27.377,3.75h-15A5.625,5.625,0,0,0,6.75,9.376v22.5A5.625,5.625,0,0,0,12.376,37.5h9.376a1.875,1.875,0,1,1,0,3.75H12.376A9.387,9.387,0,0,1,3,31.877V9.376A9.387,9.387,0,0,1,12.376,0h15a9.387,9.387,0,0,1,9.376,9.376V25.093A7.407,7.407,0,0,1,34.877,36.46Zm0-6.458a3.75,3.75,0,1,0-3.75,3.75A3.75,3.75,0,0,0,34.877,30Z" transform="translate(-3)" fill="#0e1226"/>
</svg>
