<svg xmlns="http://www.w3.org/2000/svg" width="16.374" height="15" viewBox="0 0 16.374 15">
  <path id="eye-crossed" d="M15.87,6.743a10.821,10.821,0,0,0-2.3-2.666l1.91-1.91a.682.682,0,1,0-.964-.964l-2.077,2.08A8.221,8.221,0,0,0,8.183,2.13,9.034,9.034,0,0,0,.5,6.743a3.347,3.347,0,0,0,0,3.521,10.821,10.821,0,0,0,2.3,2.666l-1.91,1.91a.682.682,0,1,0,.964.964l2.081-2.082a8.221,8.221,0,0,0,4.252,1.155,9.034,9.034,0,0,0,7.687-4.613A3.347,3.347,0,0,0,15.87,6.743ZM1.658,9.549a1.99,1.99,0,0,1,0-2.092A7.72,7.72,0,0,1,8.183,3.494a6.888,6.888,0,0,1,3.25.795L10.06,5.661a3.4,3.4,0,0,0-4.719,4.719L3.765,11.956A9.359,9.359,0,0,1,1.658,9.549ZM10.229,8.5a2.046,2.046,0,0,1-2.046,2.046,2.013,2.013,0,0,1-.876-.2l2.718-2.718A2.013,2.013,0,0,1,10.229,8.5Zm-4.092,0A2.046,2.046,0,0,1,8.183,6.457a2.013,2.013,0,0,1,.876.2L6.341,9.379a2.013,2.013,0,0,1-.2-.876Zm8.571,1.046a7.72,7.72,0,0,1-6.525,3.963,6.888,6.888,0,0,1-3.25-.795l1.373-1.373a3.4,3.4,0,0,0,4.719-4.719L12.6,5.05a9.359,9.359,0,0,1,2.107,2.407,1.99,1.99,0,0,1,0,2.092Z" transform="translate(0.004 -1.003)" fill="#0e1226"/>
</svg>
