<svg xmlns="http://www.w3.org/2000/svg" width="13.262" height="15.914" viewBox="0 0 13.262 15.914">
  <path id="file_2_" data-name="file (2)" d="M13.9,3.671l-2.31-2.312A4.614,4.614,0,0,0,8.309,0H5.316A3.319,3.319,0,0,0,2,3.315V12.6a3.319,3.319,0,0,0,3.316,3.316h6.631A3.319,3.319,0,0,0,15.262,12.6V6.953A4.609,4.609,0,0,0,13.9,3.671Zm-.938.938a3.3,3.3,0,0,1,.518.7H10.62a.663.663,0,0,1-.663-.663V1.78a3.322,3.322,0,0,1,.7.517Zm.971,7.99a1.989,1.989,0,0,1-1.989,1.989H5.316A1.989,1.989,0,0,1,3.326,12.6V3.315A1.989,1.989,0,0,1,5.316,1.326H8.309c.109,0,.214.021.322.031V4.642A1.989,1.989,0,0,0,10.62,6.631H13.9c.01.107.031.212.031.322Z" transform="translate(-2)" fill="#0e1226"/>
</svg>
