<svg xmlns="http://www.w3.org/2000/svg" width="70.334" height="70.296" viewBox="0 0 70.334 70.296">
  <g id="Groupe_9" data-name="Groupe 9" transform="translate(0)">
    <g id="Groupe_6" data-name="Groupe 6" transform="translate(55.128 6.189)">
      <g id="Groupe_5" data-name="Groupe 5">
        <path id="Tracé_9" data-name="Tracé 9" d="M300.854,42.6a16.525,16.525,0,0,1-9.655-9.9A35.34,35.34,0,0,1,300.854,42.6Z" transform="translate(-291.2 -32.7)" fill="#181d63" fill-rule="evenodd"/>
      </g>
    </g>
    <g id="Groupe_8" data-name="Groupe 8" transform="translate(0 0)">
      <g id="Groupe_7" data-name="Groupe 7">
        <path id="Tracé_10" data-name="Tracé 10" d="M70.184,31.638c-.151-1.628-.568-4.07-.568-4.07-26.086-2.821-26.2-26.559-26.2-26.559C27.666-3.024,10.023,5.457,3.3,20.261c-7.856,16-1.212,36.517,14.255,45.187,21.619,12.948,49.976-1.42,52.589-26.37A44.528,44.528,0,0,0,70.184,31.638Zm-3.635,3.54c-.208,28-34.132,41.666-53.781,21.808C-7.753,35.348,10.08.289,39.649,4.246,42.527,22.8,55.873,29.423,66.322,31.278,66.474,32.585,66.549,35.178,66.549,35.178Z" transform="translate(0.012 -0.007)" fill="#181d63" fill-rule="evenodd"/>
        <path id="Tracé_11" data-name="Tracé 11" d="M96.4,69.06A27.3,27.3,0,1,1,69.1,41.8c.379,0,.757.019,1.117.038q.454,1.959,1.079,3.805a21.15,21.15,0,0,0-2.215-.114A23.549,23.549,0,1,0,92.628,69.117l-.076-1.836.019-.057a34.517,34.517,0,0,0,3.786,1.117A4.582,4.582,0,0,1,96.4,69.06Z" transform="translate(-33.885 -33.888)" fill="#181d63" fill-rule="evenodd"/>
        <path id="Tracé_12" data-name="Tracé 12" d="M120.505,102.615a19.953,19.953,0,0,1-39.905,0h.019A19.935,19.935,0,0,1,100.572,82.7a20.462,20.462,0,0,1,4.013.4,33.158,33.158,0,0,0,2.669,4.468,16.321,16.321,0,0,0-6.7-1.42,16.479,16.479,0,1,0,16.507,16.47,16,16,0,0,0-1.382-6.626,35.619,35.619,0,0,0,4.449,2.688A19.422,19.422,0,0,1,120.505,102.615Z" transform="translate(-65.34 -67.046)" fill="#181d63" fill-rule="evenodd"/>
        <path id="Tracé_13" data-name="Tracé 13" d="M260.232,29.184v-.019a23.933,23.933,0,0,1-9.957-13.441A20.993,20.993,0,0,1,249.5,11.2a34.148,34.148,0,0,1,3.748,1.628s1.306,13.157,16.167,16.564l1.363,3.407A23.89,23.89,0,0,1,260.232,29.184Z" transform="translate(-202.265 -9.081)" fill="#181d63" fill-rule="evenodd"/>
      </g>
    </g>
  </g>
</svg>
