<svg xmlns="http://www.w3.org/2000/svg" width="15" height="18" viewBox="0 0 15 18">
  <g id="lock" transform="translate(-2)">
    <path id="Tracé_12855" data-name="Tracé 12855" d="M14.75,6.318V5.25a5.25,5.25,0,1,0-10.5,0V6.318A3.75,3.75,0,0,0,2,9.75v4.5A3.754,3.754,0,0,0,5.75,18h7.5A3.754,3.754,0,0,0,17,14.25V9.75A3.75,3.75,0,0,0,14.75,6.318Zm-9-1.068a3.75,3.75,0,0,1,7.5,0V6H5.75Zm9.75,9a2.25,2.25,0,0,1-2.25,2.25H5.75A2.25,2.25,0,0,1,3.5,14.25V9.75A2.25,2.25,0,0,1,5.75,7.5h7.5A2.25,2.25,0,0,1,15.5,9.75Z" fill="#878796"/>
    <path id="Tracé_12856" data-name="Tracé 12856" d="M11.75,14a.75.75,0,0,0-.75.75v1.5a.75.75,0,0,0,1.5,0v-1.5A.75.75,0,0,0,11.75,14Z" transform="translate(-2.25 -3.5)" fill="#878796"/>
  </g>
</svg>
