<svg xmlns="http://www.w3.org/2000/svg" width="125.5" height="29.036" viewBox="0 0 125.5 29.036">
  <g id="logo" transform="translate(0.012 -0.007)">
    <g id="Groupe_9" data-name="Groupe 9" transform="translate(-0.012 0.007)">
      <g id="Groupe_6" data-name="Groupe 6" transform="translate(22.771 2.556)">
        <g id="Groupe_5" data-name="Groupe 5">
          <path id="Tracé_9" data-name="Tracé 9" d="M295.188,36.789A6.826,6.826,0,0,1,291.2,32.7,14.6,14.6,0,0,1,295.188,36.789Z" transform="translate(-291.2 -32.7)" fill="#181d63" fill-rule="evenodd"/>
        </g>
      </g>
      <g id="Groupe_8" data-name="Groupe 8" transform="translate(0 0)">
        <g id="Groupe_7" data-name="Groupe 7">
          <path id="Tracé_10" data-name="Tracé 10" d="M28.982,13.072c-.063-.672-.235-1.681-.235-1.681C17.973,10.226,17.926.42,17.926.42A14.667,14.667,0,0,0,1.357,8.373a14.525,14.525,0,1,0,27.61,7.772A18.392,18.392,0,0,0,28.982,13.072Zm-1.5,1.462A12.925,12.925,0,1,1,16.37,1.758c1.189,7.663,6.7,10.4,11.017,11.166C27.45,13.463,27.481,14.534,27.481,14.534Z" transform="translate(0.012 -0.007)" fill="#181d63" fill-rule="evenodd"/>
          <path id="Tracé_11" data-name="Tracé 11" d="M64.351,53.06A11.275,11.275,0,1,1,53.075,41.8c.156,0,.313.008.461.016q.188.809.446,1.572a8.736,8.736,0,0,0-.915-.047,9.727,9.727,0,1,0,9.727,9.743l-.031-.758.008-.023a14.256,14.256,0,0,0,1.564.461A1.893,1.893,0,0,1,64.351,53.06Z" transform="translate(-38.531 -38.532)" fill="#181d63" fill-rule="evenodd"/>
          <path id="Tracé_12" data-name="Tracé 12" d="M97.083,90.926a8.242,8.242,0,0,1-16.483,0h.008A8.234,8.234,0,0,1,88.849,82.7a8.452,8.452,0,0,1,1.658.164,13.7,13.7,0,0,0,1.1,1.845,6.742,6.742,0,0,0-2.768-.586,6.807,6.807,0,1,0,6.818,6.8,6.609,6.609,0,0,0-.571-2.737,14.712,14.712,0,0,0,1.838,1.11A8.023,8.023,0,0,1,97.083,90.926Z" transform="translate(-74.297 -76.234)" fill="#181d63" fill-rule="evenodd"/>
          <path id="Tracé_13" data-name="Tracé 13" d="M253.932,18.628V18.62a9.886,9.886,0,0,1-4.113-5.552A8.67,8.67,0,0,1,249.5,11.2a14.1,14.1,0,0,1,1.548.672,8.275,8.275,0,0,0,6.678,6.842l.563,1.407A9.868,9.868,0,0,1,253.932,18.628Z" transform="translate(-229.988 -10.325)" fill="#181d63" fill-rule="evenodd"/>
        </g>
      </g>
    </g>
    <g id="Groupe_11" data-name="Groupe 11" transform="translate(43.948 7.7)">
      <g id="Groupe_10" data-name="Groupe 10">
        <path id="Tracé_14" data-name="Tracé 14" d="M574.124,100.535,574,100.4a6.039,6.039,0,0,0-1.056-.868,6.732,6.732,0,0,0-3.831-1.134,6.663,6.663,0,0,0-4.363,1.533,4.907,4.907,0,0,0-.524.469l-.125.125a6.613,6.613,0,0,0-1.361,2.041,5.92,5.92,0,0,0-.227.61,3.167,3.167,0,0,0-.125.454c-.039.133-.055.25-.078.36a5.288,5.288,0,0,0-.078.54,6.965,6.965,0,0,0-.031.7,6.494,6.494,0,0,0,1.548,4.316,4.825,4.825,0,0,0,.469.516,4.049,4.049,0,0,0,.516.461,6.132,6.132,0,0,0,1.72,1.04,7.02,7.02,0,0,0,2.651.508,6.871,6.871,0,0,0,2.651-.508,6.07,6.07,0,0,0,1.7-1.024,4.884,4.884,0,0,0,.524-.469A6.622,6.622,0,0,0,576,105.242,6.547,6.547,0,0,0,574.124,100.535Zm-1.321,8.429a4.645,4.645,0,0,1-.539.469,1.372,1.372,0,0,1-.266.2,4.356,4.356,0,0,1-.438.266,4.785,4.785,0,0,1-.907.375,1.637,1.637,0,0,1-.25.063,4.967,4.967,0,0,1-.758.133,5.269,5.269,0,0,1-4.23-8.969,5.219,5.219,0,0,1,7.389,0,5.118,5.118,0,0,1,1.533,3.73A5.045,5.045,0,0,1,572.8,108.964Z" transform="translate(-562.2 -98.4)" fill="#181d63"/>
      </g>
    </g>
    <g id="Groupe_13" data-name="Groupe 13" transform="translate(61.198 7.692)">
      <g id="Groupe_12" data-name="Groupe 12">
        <path id="Tracé_15" data-name="Tracé 15" d="M792.433,99.942a5.434,5.434,0,0,0-4-1.642H782.8v13.684h1.658v-2.5h3.972a5.607,5.607,0,0,0,5.646-5.591A5.35,5.35,0,0,0,792.433,99.942Zm-1.188,6.787h-.008a3.994,3.994,0,0,1-2.8,1.173h-3.98v-8.03h3.972a4.025,4.025,0,0,1,2.815,6.857Z" transform="translate(-782.8 -98.3)" fill="#181d63"/>
      </g>
    </g>
    <g id="Groupe_15" data-name="Groupe 15" transform="translate(75.914 7.692)">
      <g id="Groupe_14" data-name="Groupe 14">
        <rect id="Rectangle_6" data-name="Rectangle 6" width="1.665" height="13.684" fill="#181d63"/>
      </g>
    </g>
    <g id="Groupe_17" data-name="Groupe 17" transform="translate(80.996 7.691)">
      <g id="B_1_">
        <g id="Groupe_16" data-name="Groupe 16">
          <path id="Tracé_16" data-name="Tracé 16" d="M1044.421,104.546h4.129v7.413h-1.666v-1.228a6.965,6.965,0,0,1-4.1,1.235,6.842,6.842,0,0,1,.125-13.684,6.75,6.75,0,0,1,4.9,2.017,10.48,10.48,0,0,1,.821.985l.5.665h-2.025l-.516-.555a5.219,5.219,0,0,0-7.381.008,5.258,5.258,0,0,0,3.691,8.984,5.02,5.02,0,0,0,3.7-1.54,3.06,3.06,0,0,0,.281-.313v-2.408h-2.463Z" transform="translate(-1036 -98.281)" fill="#181d63"/>
        </g>
      </g>
    </g>
    <g id="Groupe_19" data-name="Groupe 19" transform="translate(96.971 7.7)">
      <g id="Groupe_18" data-name="Groupe 18">
        <path id="Tracé_17" data-name="Tracé 17" d="M1251.583,103.991v8.093h-1.666v-8.093a3.851,3.851,0,0,0-1.157-2.838,3.89,3.89,0,0,0-2.862-1.181,3.809,3.809,0,0,0-2.752,1.173,3.856,3.856,0,0,0-1.181,2.838v8.1H1240.3v-8.093a5.62,5.62,0,0,1,5.646-5.591,5.448,5.448,0,0,1,4,1.642A5.38,5.38,0,0,1,1251.583,103.991Z" transform="translate(-1240.3 -98.4)" fill="#181d63"/>
      </g>
    </g>
    <g id="Groupe_21" data-name="Groupe 21" transform="translate(111.679 7.692)">
      <g id="Groupe_20" data-name="Groupe 20">
        <path id="Tracé_18" data-name="Tracé 18" d="M1440.191,100.31a6.8,6.8,0,1,0,2.017,4.832A6.675,6.675,0,0,0,1440.191,100.31Zm-1.181,8.554-.125.125a5.264,5.264,0,1,1,.125-7.569,5.286,5.286,0,0,1,0,7.444Z" transform="translate(-1428.4 -98.3)" fill="#181d63"/>
      </g>
    </g>
  </g>
</svg>
