<svg xmlns="http://www.w3.org/2000/svg" width="24" height="17" viewBox="0 0 24 17">
  <g id="menu-burger" transform="translate(0 -74.667)">
    <path id="Tracé_12668" data-name="Tracé 12668" d="M22.5,224H1.5a1.5,1.5,0,1,0,0,3h21a1.5,1.5,0,1,0,0-3Z" transform="translate(0 -142.333)" fill="#181d63"/>
    <path id="Tracé_12669" data-name="Tracé 12669" d="M1.5,77.667h21a1.5,1.5,0,0,0,0-3H1.5a1.5,1.5,0,0,0,0,3Z" fill="#181d63"/>
    <path id="Tracé_12670" data-name="Tracé 12670" d="M22.5,373.333H1.5a1.5,1.5,0,0,0,0,3h21a1.5,1.5,0,0,0,0-3Z" transform="translate(0 -284.666)" fill="#181d63"/>
  </g>
</svg>
