<svg id="Groupe_3808" data-name="Groupe 3808" xmlns="http://www.w3.org/2000/svg" xmlns:xlink="http://www.w3.org/1999/xlink" width="24" height="23.999" viewBox="0 0 24 23.999">
  <defs>
    <clipPath id="clip-path">
      <rect id="Rectangle_3817" data-name="Rectangle 3817" width="24" height="23.999" fill="#e1e1e6"/>
    </clipPath>
  </defs>
  <g id="Groupe_3808-2" data-name="Groupe 3808" clip-path="url(#clip-path)">
    <path id="Tracé_12734" data-name="Tracé 12734" d="M1.451,6.649A2,2,0,0,0,.586,9.986L3.7,13.093a1.028,1.028,0,0,1,.3.727v5.132a1.028,1.028,0,0,0,1.028,1.028h5.14a1.028,1.028,0,0,1,.726.3l3.134,3.13A1.987,1.987,0,0,0,15.435,24a2.034,2.034,0,0,0,.51-.066,1.978,1.978,0,0,0,1.42-1.379L24,0Zm.556,1.923,17.029-5.02L6,16.566V13.278a1.72,1.72,0,0,0-.5-1.216ZM15.448,22l-3.524-3.514a1.72,1.72,0,0,0-1.214-.5H7.421L20.455,4.957Z" transform="translate(0)" fill="#e1e1e6"/>
  </g>
</svg>
