<svg width="355" height="349" viewBox="0 0 355 349" fill="none" xmlns="http://www.w3.org/2000/svg">
<g filter="url(#filter0_dd_1813_9445)">
<g clip-path="url(#clip0_1813_9445)">
<rect x="23" y="16" width="315" height="309" rx="5" fill="#F8F7F8"/>
<path d="M120.836 62.1211H119.617L114.715 54.6878V62.1211H113.496V52.7726H114.715L119.617 60.1925V52.7726H120.836V62.1211ZM129.342 58.1701C129.342 58.4022 129.329 58.6478 129.302 58.9067H123.436C123.48 59.6299 123.726 60.1969 124.172 60.6077C124.628 61.0095 125.177 61.2104 125.82 61.2104C126.346 61.2104 126.784 61.0898 127.132 60.8487C127.489 60.5987 127.739 60.2684 127.882 59.8576H129.195C128.998 60.563 128.605 61.1389 128.016 61.5854C127.427 62.0229 126.695 62.2416 125.82 62.2416C125.123 62.2416 124.498 62.0854 123.944 61.7729C123.4 61.4604 122.971 61.0184 122.659 60.4469C122.346 59.8666 122.19 59.1969 122.19 58.4379C122.19 57.679 122.342 57.0138 122.645 56.4423C122.949 55.8709 123.373 55.4334 123.918 55.1298C124.471 54.8173 125.105 54.661 125.82 54.661C126.516 54.661 127.132 54.8128 127.668 55.1164C128.204 55.42 128.614 55.8397 128.9 56.3754C129.195 56.9022 129.342 57.5004 129.342 58.1701ZM128.083 57.9156C128.083 57.4513 127.98 57.054 127.775 56.7236C127.57 56.3843 127.288 56.1298 126.931 55.9602C126.583 55.7816 126.195 55.6923 125.766 55.6923C125.15 55.6923 124.623 55.8888 124.186 56.2816C123.757 56.6745 123.511 57.2192 123.449 57.9156H128.083ZM134.513 62.1211L132.772 59.3889L131.098 62.1211H129.826L132.196 58.4781L129.826 54.7816H131.205L132.946 57.5004L134.607 54.7816H135.879L133.522 58.4112L135.893 62.1211H134.513ZM138.311 55.7861V60.1121C138.311 60.4693 138.386 60.7237 138.538 60.8755C138.69 61.0184 138.953 61.0898 139.328 61.0898H140.226V62.1211H139.127C138.449 62.1211 137.94 61.9648 137.601 61.6523C137.261 61.3398 137.092 60.8264 137.092 60.1121V55.7861H136.141V54.7816H137.092V52.9333H138.311V54.7816H140.226V55.7861H138.311ZM147.336 62.2416C146.773 62.2416 146.269 62.1479 145.822 61.9604C145.376 61.7639 145.023 61.4961 144.764 61.1568C144.505 60.8086 144.362 60.4112 144.336 59.9648H145.595C145.63 60.3309 145.8 60.63 146.104 60.8621C146.416 61.0943 146.822 61.2104 147.322 61.2104C147.787 61.2104 148.153 61.1077 148.421 60.9023C148.688 60.6969 148.822 60.438 148.822 60.1255C148.822 59.8041 148.679 59.5674 148.394 59.4157C148.108 59.2549 147.666 59.0987 147.068 58.9469C146.523 58.804 146.077 58.6612 145.728 58.5183C145.389 58.3665 145.095 58.1478 144.845 57.862C144.603 57.5674 144.483 57.1834 144.483 56.7102C144.483 56.3352 144.595 55.9914 144.818 55.6789C145.041 55.3664 145.358 55.1209 145.769 54.9423C146.179 54.7548 146.648 54.661 147.175 54.661C147.987 54.661 148.644 54.8664 149.144 55.2771C149.644 55.6879 149.912 56.2504 149.947 56.9647H148.729C148.702 56.5807 148.546 56.2727 148.26 56.0406C147.983 55.8084 147.608 55.6923 147.135 55.6923C146.697 55.6923 146.349 55.7861 146.09 55.9736C145.831 56.1611 145.702 56.4066 145.702 56.7102C145.702 56.9513 145.778 57.1522 145.929 57.3129C146.09 57.4647 146.287 57.5897 146.519 57.6879C146.76 57.7772 147.09 57.8799 147.51 57.996C148.037 58.1388 148.465 58.2817 148.796 58.4246C149.126 58.5585 149.407 58.7638 149.639 59.0406C149.88 59.3174 150.005 59.6791 150.014 60.1255C150.014 60.5273 149.903 60.8889 149.68 61.2104C149.456 61.5318 149.139 61.7863 148.729 61.9738C148.327 62.1523 147.862 62.2416 147.336 62.2416ZM158.164 58.1701C158.164 58.4022 158.15 58.6478 158.123 58.9067H152.257C152.302 59.6299 152.547 60.1969 152.994 60.6077C153.449 61.0095 153.998 61.2104 154.641 61.2104C155.168 61.2104 155.606 61.0898 155.954 60.8487C156.311 60.5987 156.561 60.2684 156.704 59.8576H158.016C157.82 60.563 157.427 61.1389 156.838 61.5854C156.248 62.0229 155.516 62.2416 154.641 62.2416C153.945 62.2416 153.32 62.0854 152.766 61.7729C152.221 61.4604 151.793 61.0184 151.48 60.4469C151.168 59.8666 151.012 59.1969 151.012 58.4379C151.012 57.679 151.163 57.0138 151.467 56.4423C151.771 55.8709 152.195 55.4334 152.739 55.1298C153.293 54.8173 153.927 54.661 154.641 54.661C155.338 54.661 155.954 54.8128 156.489 55.1164C157.025 55.42 157.436 55.8397 157.722 56.3754C158.016 56.9022 158.164 57.5004 158.164 58.1701ZM156.905 57.9156C156.905 57.4513 156.802 57.054 156.597 56.7236C156.391 56.3843 156.11 56.1298 155.753 55.9602C155.405 55.7816 155.016 55.6923 154.588 55.6923C153.972 55.6923 153.445 55.8888 153.007 56.2816C152.579 56.6745 152.333 57.2192 152.271 57.9156H156.905ZM162.103 62.2416C161.54 62.2416 161.036 62.1479 160.589 61.9604C160.143 61.7639 159.79 61.4961 159.531 61.1568C159.272 60.8086 159.13 60.4112 159.103 59.9648H160.362C160.397 60.3309 160.567 60.63 160.871 60.8621C161.183 61.0943 161.589 61.2104 162.089 61.2104C162.554 61.2104 162.92 61.1077 163.188 60.9023C163.456 60.6969 163.589 60.438 163.589 60.1255C163.589 59.8041 163.447 59.5674 163.161 59.4157C162.875 59.2549 162.433 59.0987 161.835 58.9469C161.29 58.804 160.844 58.6612 160.496 58.5183C160.156 58.3665 159.862 58.1478 159.612 57.862C159.371 57.5674 159.25 57.1834 159.25 56.7102C159.25 56.3352 159.362 55.9914 159.585 55.6789C159.808 55.3664 160.125 55.1209 160.536 54.9423C160.947 54.7548 161.415 54.661 161.942 54.661C162.755 54.661 163.411 54.8664 163.911 55.2771C164.411 55.6879 164.679 56.2504 164.714 56.9647H163.496C163.469 56.5807 163.313 56.2727 163.027 56.0406C162.75 55.8084 162.375 55.6923 161.902 55.6923C161.464 55.6923 161.116 55.7861 160.857 55.9736C160.598 56.1611 160.469 56.4066 160.469 56.7102C160.469 56.9513 160.545 57.1522 160.697 57.3129C160.857 57.4647 161.054 57.5897 161.286 57.6879C161.527 57.7772 161.857 57.8799 162.277 57.996C162.804 58.1388 163.232 58.2817 163.563 58.4246C163.893 58.5585 164.174 58.7638 164.406 59.0406C164.648 59.3174 164.773 59.6791 164.781 60.1255C164.781 60.5273 164.67 60.8889 164.447 61.2104C164.223 61.5318 163.906 61.7863 163.496 61.9738C163.094 62.1523 162.63 62.2416 162.103 62.2416ZM168.832 62.2416C168.27 62.2416 167.765 62.1479 167.319 61.9604C166.873 61.7639 166.52 61.4961 166.261 61.1568C166.002 60.8086 165.859 60.4112 165.832 59.9648H167.091C167.127 60.3309 167.297 60.63 167.6 60.8621C167.913 61.0943 168.319 61.2104 168.819 61.2104C169.283 61.2104 169.649 61.1077 169.917 60.9023C170.185 60.6969 170.319 60.438 170.319 60.1255C170.319 59.8041 170.176 59.5674 169.89 59.4157C169.605 59.2549 169.163 59.0987 168.565 58.9469C168.02 58.804 167.573 58.6612 167.225 58.5183C166.886 58.3665 166.591 58.1478 166.341 57.862C166.1 57.5674 165.98 57.1834 165.98 56.7102C165.98 56.3352 166.091 55.9914 166.314 55.6789C166.538 55.3664 166.855 55.1209 167.265 54.9423C167.676 54.7548 168.145 54.661 168.672 54.661C169.484 54.661 170.14 54.8664 170.64 55.2771C171.141 55.6879 171.408 56.2504 171.444 56.9647H170.225C170.199 56.5807 170.042 56.2727 169.757 56.0406C169.48 55.8084 169.105 55.6923 168.631 55.6923C168.194 55.6923 167.846 55.7861 167.587 55.9736C167.328 56.1611 167.198 56.4066 167.198 56.7102C167.198 56.9513 167.274 57.1522 167.426 57.3129C167.587 57.4647 167.783 57.5897 168.015 57.6879C168.256 57.7772 168.587 57.8799 169.007 57.996C169.533 58.1388 169.962 58.2817 170.292 58.4246C170.623 58.5585 170.904 58.7638 171.136 59.0406C171.377 59.3174 171.502 59.6791 171.511 60.1255C171.511 60.5273 171.399 60.8889 171.176 61.2104C170.953 61.5318 170.636 61.7863 170.225 61.9738C169.823 62.1523 169.359 62.2416 168.832 62.2416ZM173.593 53.5896C173.361 53.5896 173.165 53.5092 173.004 53.3485C172.843 53.1878 172.763 52.9914 172.763 52.7592C172.763 52.5271 172.843 52.3306 173.004 52.1699C173.165 52.0092 173.361 51.9288 173.593 51.9288C173.816 51.9288 174.004 52.0092 174.156 52.1699C174.316 52.3306 174.397 52.5271 174.397 52.7592C174.397 52.9914 174.316 53.1878 174.156 53.3485C174.004 53.5092 173.816 53.5896 173.593 53.5896ZM174.182 54.7816V62.1211H172.964V54.7816H174.182ZM179.193 62.2416C178.505 62.2416 177.88 62.0854 177.318 61.7729C176.764 61.4604 176.327 61.0184 176.005 60.4469C175.693 59.8666 175.536 59.1969 175.536 58.4379C175.536 57.6879 175.697 57.0272 176.019 56.4557C176.349 55.8754 176.795 55.4334 177.358 55.1298C177.92 54.8173 178.55 54.661 179.246 54.661C179.943 54.661 180.572 54.8173 181.135 55.1298C181.697 55.4334 182.139 55.8709 182.461 56.4423C182.791 57.0138 182.956 57.679 182.956 58.4379C182.956 59.1969 182.787 59.8666 182.447 60.4469C182.117 61.0184 181.666 61.4604 181.095 61.7729C180.523 62.0854 179.889 62.2416 179.193 62.2416ZM179.193 61.1702C179.63 61.1702 180.041 61.0675 180.425 60.8621C180.809 60.6568 181.117 60.3487 181.349 59.938C181.59 59.5273 181.711 59.0272 181.711 58.4379C181.711 57.8486 181.595 57.3486 181.363 56.9379C181.13 56.5272 180.827 56.2236 180.452 56.0272C180.077 55.8218 179.671 55.7191 179.233 55.7191C178.787 55.7191 178.376 55.8218 178.001 56.0272C177.635 56.2236 177.34 56.5272 177.117 56.9379C176.894 57.3486 176.782 57.8486 176.782 58.4379C176.782 59.0362 176.889 59.5407 177.103 59.9514C177.327 60.3621 177.621 60.6702 177.987 60.8755C178.354 61.072 178.755 61.1702 179.193 61.1702ZM187.867 54.6477C188.76 54.6477 189.483 54.92 190.037 55.4646C190.59 56.0004 190.867 56.7772 190.867 57.7951V62.1211H189.662V57.9692C189.662 57.237 189.479 56.679 189.113 56.295C188.746 55.9022 188.246 55.7057 187.612 55.7057C186.97 55.7057 186.456 55.9066 186.072 56.3084C185.697 56.7102 185.51 57.2951 185.51 58.0629V62.1211H184.291V54.7816H185.51V55.8263C185.751 55.4512 186.077 55.1611 186.487 54.9557C186.907 54.7503 187.367 54.6477 187.867 54.6477ZM198.491 62.2416C197.929 62.2416 197.424 62.1479 196.978 61.9604C196.531 61.7639 196.179 61.4961 195.92 61.1568C195.661 60.8086 195.518 60.4112 195.491 59.9648H196.75C196.786 60.3309 196.955 60.63 197.259 60.8621C197.571 61.0943 197.978 61.2104 198.478 61.2104C198.942 61.2104 199.308 61.1077 199.576 60.9023C199.844 60.6969 199.978 60.438 199.978 60.1255C199.978 59.8041 199.835 59.5674 199.549 59.4157C199.263 59.2549 198.822 59.0987 198.223 58.9469C197.679 58.804 197.232 58.6612 196.884 58.5183C196.545 58.3665 196.25 58.1478 196 57.862C195.759 57.5674 195.638 57.1834 195.638 56.7102C195.638 56.3352 195.75 55.9914 195.973 55.6789C196.196 55.3664 196.513 55.1209 196.924 54.9423C197.335 54.7548 197.804 54.661 198.33 54.661C199.143 54.661 199.799 54.8664 200.299 55.2771C200.799 55.6879 201.067 56.2504 201.103 56.9647H199.884C199.857 56.5807 199.701 56.2727 199.415 56.0406C199.138 55.8084 198.763 55.6923 198.29 55.6923C197.853 55.6923 197.505 55.7861 197.246 55.9736C196.987 56.1611 196.857 56.4066 196.857 56.7102C196.857 56.9513 196.933 57.1522 197.085 57.3129C197.246 57.4647 197.442 57.5897 197.674 57.6879C197.915 57.7772 198.246 57.8799 198.665 57.996C199.192 58.1388 199.621 58.2817 199.951 58.4246C200.281 58.5585 200.563 58.7638 200.795 59.0406C201.036 59.3174 201.161 59.6791 201.17 60.1255C201.17 60.5273 201.058 60.8889 200.835 61.2104C200.612 61.5318 200.295 61.7863 199.884 61.9738C199.482 62.1523 199.018 62.2416 198.491 62.2416ZM204.109 55.7861V60.1121C204.109 60.4693 204.185 60.7237 204.337 60.8755C204.489 61.0184 204.752 61.0898 205.127 61.0898H206.024V62.1211H204.926C204.248 62.1211 203.739 61.9648 203.399 61.6523C203.06 61.3398 202.89 60.8264 202.89 60.1121V55.7861H201.939V54.7816H202.89V52.9333H204.109V54.7816H206.024V55.7861H204.109ZM206.778 58.4246C206.778 57.6745 206.93 57.0183 207.233 56.4557C207.537 55.8843 207.952 55.4423 208.479 55.1298C209.014 54.8173 209.608 54.661 210.26 54.661C210.903 54.661 211.461 54.7994 211.934 55.0762C212.407 55.353 212.76 55.7013 212.992 56.1209V54.7816H214.224V62.1211H212.992V60.755C212.751 61.1836 212.39 61.5407 211.907 61.8264C211.434 62.1032 210.881 62.2416 210.247 62.2416C209.595 62.2416 209.006 62.0809 208.479 61.7595C207.952 61.438 207.537 60.9871 207.233 60.4068C206.93 59.8264 206.778 59.1656 206.778 58.4246ZM212.992 58.4379C212.992 57.8844 212.881 57.4022 212.657 56.9915C212.434 56.5807 212.131 56.2682 211.747 56.0539C211.372 55.8307 210.957 55.7191 210.501 55.7191C210.046 55.7191 209.631 55.8263 209.256 56.0406C208.881 56.2548 208.581 56.5674 208.358 56.9781C208.135 57.3888 208.023 57.871 208.023 58.4246C208.023 58.9871 208.135 59.4782 208.358 59.8978C208.581 60.3085 208.881 60.6255 209.256 60.8487C209.631 61.063 210.046 61.1702 210.501 61.1702C210.957 61.1702 211.372 61.063 211.747 60.8487C212.131 60.6255 212.434 60.3085 212.657 59.8978C212.881 59.4782 212.992 58.9915 212.992 58.4379ZM217.235 55.9736C217.449 55.5539 217.753 55.228 218.146 54.9959C218.548 54.7637 219.034 54.6477 219.606 54.6477V55.9066H219.284C217.918 55.9066 217.235 56.6477 217.235 58.1299V62.1211H216.016V54.7816H217.235V55.9736ZM222.231 55.7861V60.1121C222.231 60.4693 222.307 60.7237 222.459 60.8755C222.611 61.0184 222.874 61.0898 223.249 61.0898H224.147V62.1211H223.048C222.37 62.1211 221.861 61.9648 221.522 61.6523C221.182 61.3398 221.013 60.8264 221.013 60.1121V55.7861H220.062V54.7816H221.013V52.9333H222.231V54.7816H224.147V55.7861H222.231ZM227.954 62.2416C227.391 62.2416 226.887 62.1479 226.44 61.9604C225.994 61.7639 225.641 61.4961 225.382 61.1568C225.123 60.8086 224.98 60.4112 224.954 59.9648H226.213C226.248 60.3309 226.418 60.63 226.722 60.8621C227.034 61.0943 227.44 61.2104 227.94 61.2104C228.405 61.2104 228.771 61.1077 229.039 60.9023C229.306 60.6969 229.44 60.438 229.44 60.1255C229.44 59.8041 229.298 59.5674 229.012 59.4157C228.726 59.2549 228.284 59.0987 227.686 58.9469C227.141 58.804 226.695 58.6612 226.347 58.5183C226.007 58.3665 225.713 58.1478 225.463 57.862C225.222 57.5674 225.101 57.1834 225.101 56.7102C225.101 56.3352 225.213 55.9914 225.436 55.6789C225.659 55.3664 225.976 55.1209 226.387 54.9423C226.797 54.7548 227.266 54.661 227.793 54.661C228.606 54.661 229.262 54.8664 229.762 55.2771C230.262 55.6879 230.53 56.2504 230.565 56.9647H229.347C229.32 56.5807 229.164 56.2727 228.878 56.0406C228.601 55.8084 228.226 55.6923 227.753 55.6923C227.315 55.6923 226.967 55.7861 226.708 55.9736C226.449 56.1611 226.32 56.4066 226.32 56.7102C226.32 56.9513 226.396 57.1522 226.547 57.3129C226.708 57.4647 226.905 57.5897 227.137 57.6879C227.378 57.7772 227.708 57.8799 228.128 57.996C228.655 58.1388 229.083 58.2817 229.414 58.4246C229.744 58.5585 230.025 58.7638 230.257 59.0406C230.498 59.3174 230.623 59.6791 230.632 60.1255C230.632 60.5273 230.521 60.8889 230.298 61.2104C230.074 61.5318 229.757 61.7863 229.347 61.9738C228.945 62.1523 228.481 62.2416 227.954 62.2416ZM236.017 53.5896C235.785 53.5896 235.589 53.5092 235.428 53.3485C235.267 53.1878 235.187 52.9914 235.187 52.7592C235.187 52.5271 235.267 52.3306 235.428 52.1699C235.589 52.0092 235.785 51.9288 236.017 51.9288C236.241 51.9288 236.428 52.0092 236.58 52.1699C236.741 52.3306 236.821 52.5271 236.821 52.7592C236.821 52.9914 236.741 53.1878 236.58 53.3485C236.428 53.5092 236.241 53.5896 236.017 53.5896ZM236.607 54.7816V62.1211H235.388V54.7816H236.607ZM241.992 54.6477C242.885 54.6477 243.608 54.92 244.162 55.4646C244.715 56.0004 244.992 56.7772 244.992 57.7951V62.1211H243.787V57.9692C243.787 57.237 243.604 56.679 243.238 56.295C242.871 55.9022 242.371 55.7057 241.737 55.7057C241.095 55.7057 240.581 55.9066 240.197 56.3084C239.822 56.7102 239.635 57.2951 239.635 58.0629V62.1211H238.416V54.7816H239.635V55.8263C239.876 55.4512 240.202 55.1611 240.612 54.9557C241.032 54.7503 241.492 54.6477 241.992 54.6477ZM247.103 62.2015C246.871 62.2015 246.675 62.1211 246.514 61.9604C246.353 61.7997 246.273 61.6032 246.273 61.3711C246.273 61.1389 246.353 60.9425 246.514 60.7818C246.675 60.621 246.871 60.5407 247.103 60.5407C247.327 60.5407 247.514 60.621 247.666 60.7818C247.827 60.9425 247.907 61.1389 247.907 61.3711C247.907 61.6032 247.827 61.7997 247.666 61.9604C247.514 62.1211 247.327 62.2015 247.103 62.2015ZM247.103 56.4691C246.871 56.4691 246.675 56.3888 246.514 56.2281C246.353 56.0673 246.273 55.8709 246.273 55.6388C246.273 55.4066 246.353 55.2102 246.514 55.0494C246.675 54.8887 246.871 54.8084 247.103 54.8084C247.327 54.8084 247.514 54.8887 247.666 55.0494C247.827 55.2102 247.907 55.4066 247.907 55.6388C247.907 55.8709 247.827 56.0673 247.666 56.2281C247.514 56.3888 247.327 56.4691 247.103 56.4691Z" fill="#878CA1"/>
<rect x="128.03" y="76.5307" width="103.984" height="40.8442" rx="4.3714" fill="white"/>
<rect x="128.03" y="76.5307" width="103.984" height="40.8442" rx="4.3714" stroke="#E9E9E9" stroke-width="1.24897"/>
<path d="M157.44 96.2285C157.44 94.4631 157.736 93.0855 158.328 92.0957C158.93 91.0957 159.96 90.5956 161.42 90.5956C162.879 90.5956 163.904 91.0957 164.496 92.0957C165.098 93.0855 165.399 94.4631 165.399 96.2285C165.399 98.0142 165.098 99.4122 164.496 100.422C163.904 101.422 162.879 101.923 161.42 101.923C159.96 101.923 158.93 101.422 158.328 100.422C157.736 99.4122 157.44 98.0142 157.44 96.2285ZM163.685 96.2285C163.685 95.4019 163.629 94.7029 163.517 94.1315C163.415 93.56 163.2 93.0957 162.874 92.7386C162.547 92.3712 162.063 92.1875 161.42 92.1875C160.777 92.1875 160.292 92.3712 159.966 92.7386C159.639 93.0957 159.42 93.56 159.307 94.1315C159.205 94.7029 159.154 95.4019 159.154 96.2285C159.154 97.0856 159.205 97.805 159.307 98.3867C159.409 98.9683 159.624 99.4377 159.95 99.7949C160.287 100.152 160.777 100.331 161.42 100.331C162.063 100.331 162.547 100.152 162.874 99.7949C163.211 99.4377 163.43 98.9683 163.532 98.3867C163.634 97.805 163.685 97.0856 163.685 96.2285ZM167.246 96.2285C167.246 94.4631 167.542 93.0855 168.134 92.0957C168.736 91.0957 169.766 90.5956 171.225 90.5956C172.685 90.5956 173.71 91.0957 174.302 92.0957C174.904 93.0855 175.205 94.4631 175.205 96.2285C175.205 98.0142 174.904 99.4122 174.302 100.422C173.71 101.422 172.685 101.923 171.225 101.923C169.766 101.923 168.736 101.422 168.134 100.422C167.542 99.4122 167.246 98.0142 167.246 96.2285ZM173.491 96.2285C173.491 95.4019 173.435 94.7029 173.323 94.1315C173.22 93.56 173.006 93.0957 172.68 92.7386C172.353 92.3712 171.868 92.1875 171.225 92.1875C170.583 92.1875 170.098 92.3712 169.771 92.7386C169.445 93.0957 169.225 93.56 169.113 94.1315C169.011 94.7029 168.96 95.4019 168.96 96.2285C168.96 97.0856 169.011 97.805 169.113 98.3867C169.215 98.9683 169.43 99.4377 169.756 99.7949C170.093 100.152 170.583 100.331 171.225 100.331C171.868 100.331 172.353 100.152 172.68 99.7949C173.016 99.4377 173.236 98.9683 173.338 98.3867C173.44 97.805 173.491 97.0856 173.491 96.2285ZM181.961 102.06C181.645 102.06 181.38 101.953 181.165 101.739C180.951 101.525 180.844 101.259 180.844 100.943C180.844 100.627 180.951 100.361 181.165 100.147C181.38 99.9327 181.645 99.8255 181.961 99.8255C182.268 99.8255 182.528 99.9327 182.742 100.147C182.956 100.361 183.063 100.627 183.063 100.943C183.063 101.259 182.956 101.525 182.742 101.739C182.528 101.953 182.268 102.06 181.961 102.06ZM181.961 95.6315C181.645 95.6315 181.38 95.5244 181.165 95.3101C180.951 95.0958 180.844 94.8305 180.844 94.5141C180.844 94.1978 180.951 93.9325 181.165 93.7182C181.38 93.5039 181.645 93.3967 181.961 93.3967C182.268 93.3967 182.528 93.5039 182.742 93.7182C182.956 93.9325 183.063 94.1978 183.063 94.5141C183.063 94.8305 182.956 95.0958 182.742 95.3101C182.528 95.5244 182.268 95.6315 181.961 95.6315ZM188.526 92.3865V90.7946H191.71V101.953H189.95V92.3865H188.526ZM193.893 99.6265V98.3102L199.036 90.9324H201.148V98.1112H202.572V99.6265H201.148V101.953H199.434V99.6265H193.893ZM199.51 92.7079L195.898 98.1112H199.51V92.7079Z" fill="#1E1E1E"/>
<path d="M93.0275 147.82V157.201H91.1459V153.209H87.1273V157.201H85.2457V147.82H87.1273V151.677H91.1459V147.82H93.0275ZM94.53 153.451C94.53 152.699 94.6778 152.031 94.9735 151.449C95.2782 150.866 95.6858 150.418 96.1966 150.105C96.7162 149.791 97.2942 149.634 97.9303 149.634C98.4858 149.634 98.9697 149.746 99.3818 149.97C99.803 150.194 100.139 150.477 100.39 150.817V149.755H102.285V157.201H100.39V156.113C100.148 156.462 99.8119 156.753 99.3818 156.986C98.9607 157.21 98.4724 157.322 97.9169 157.322C97.2897 157.322 96.7162 157.161 96.1966 156.838C95.6858 156.516 95.2782 156.063 94.9735 155.481C94.6778 154.889 94.53 154.213 94.53 153.451ZM100.39 153.478C100.39 153.021 100.3 152.632 100.121 152.309C99.9418 151.977 99.6999 151.727 99.3953 151.556C99.0906 151.377 98.7636 151.288 98.4142 151.288C98.0647 151.288 97.7422 151.373 97.4465 151.543C97.1508 151.713 96.9089 151.964 96.7207 152.296C96.5415 152.618 96.4519 153.003 96.4519 153.451C96.4519 153.899 96.5415 154.294 96.7207 154.634C96.9089 154.966 97.1508 155.221 97.4465 155.4C97.7511 155.579 98.0737 155.669 98.4142 155.669C98.7636 155.669 99.0906 155.584 99.3953 155.414C99.6999 155.234 99.9418 154.984 100.121 154.661C100.3 154.329 100.39 153.935 100.39 153.478ZM107.362 155.467L109.243 149.755H111.246L108.491 157.201H106.206L103.464 149.755H105.48L107.362 155.467ZM119.359 153.317C119.359 153.586 119.341 153.828 119.305 154.043H113.862C113.906 154.58 114.095 155.001 114.426 155.306C114.758 155.611 115.165 155.763 115.649 155.763C116.348 155.763 116.845 155.463 117.141 154.863H119.17C118.955 155.579 118.543 156.171 117.934 156.637C117.325 157.094 116.577 157.322 115.689 157.322C114.973 157.322 114.328 157.165 113.754 156.852C113.19 156.529 112.746 156.077 112.424 155.494C112.11 154.912 111.953 154.24 111.953 153.478C111.953 152.708 112.11 152.031 112.424 151.449C112.737 150.866 113.176 150.418 113.741 150.105C114.305 149.791 114.955 149.634 115.689 149.634C116.397 149.634 117.029 149.787 117.585 150.091C118.149 150.396 118.584 150.831 118.888 151.395C119.202 151.951 119.359 152.591 119.359 153.317ZM117.41 152.779C117.401 152.296 117.226 151.91 116.886 151.624C116.545 151.328 116.129 151.18 115.636 151.18C115.17 151.18 114.776 151.323 114.453 151.61C114.139 151.888 113.947 152.278 113.875 152.779H117.41ZM127.053 157.322C126.443 157.322 125.897 157.215 125.413 157C124.929 156.776 124.544 156.475 124.257 156.099C123.979 155.723 123.827 155.306 123.8 154.849H125.695C125.731 155.136 125.87 155.373 126.112 155.561C126.363 155.75 126.672 155.844 127.039 155.844C127.398 155.844 127.675 155.772 127.872 155.629C128.079 155.485 128.182 155.302 128.182 155.078C128.182 154.836 128.056 154.657 127.805 154.54C127.563 154.415 127.174 154.28 126.636 154.137C126.08 154.002 125.623 153.864 125.265 153.72C124.916 153.577 124.611 153.357 124.351 153.062C124.1 152.766 123.975 152.367 123.975 151.865C123.975 151.453 124.091 151.077 124.324 150.737C124.566 150.396 124.907 150.127 125.346 149.93C125.794 149.733 126.318 149.634 126.918 149.634C127.805 149.634 128.513 149.858 129.042 150.306C129.57 150.745 129.862 151.341 129.915 152.094H128.114C128.087 151.798 127.962 151.565 127.738 151.395C127.523 151.216 127.232 151.126 126.864 151.126C126.524 151.126 126.26 151.189 126.071 151.314C125.892 151.44 125.803 151.615 125.803 151.839C125.803 152.089 125.928 152.282 126.179 152.417C126.43 152.542 126.82 152.672 127.348 152.806C127.886 152.941 128.329 153.08 128.679 153.223C129.028 153.366 129.328 153.59 129.579 153.895C129.839 154.191 129.974 154.585 129.983 155.078C129.983 155.508 129.862 155.893 129.62 156.233C129.387 156.574 129.046 156.843 128.598 157.04C128.159 157.228 127.644 157.322 127.053 157.322ZM134.968 157.322C134.251 157.322 133.606 157.165 133.032 156.852C132.459 156.529 132.006 156.077 131.675 155.494C131.352 154.912 131.191 154.24 131.191 153.478C131.191 152.717 131.357 152.045 131.688 151.462C132.029 150.88 132.49 150.432 133.073 150.118C133.655 149.796 134.305 149.634 135.021 149.634C135.738 149.634 136.388 149.796 136.97 150.118C137.553 150.432 138.01 150.88 138.341 151.462C138.682 152.045 138.852 152.717 138.852 153.478C138.852 154.24 138.677 154.912 138.328 155.494C137.987 156.077 137.521 156.529 136.93 156.852C136.348 157.165 135.693 157.322 134.968 157.322ZM134.968 155.682C135.308 155.682 135.626 155.602 135.922 155.441C136.227 155.27 136.469 155.019 136.648 154.688C136.827 154.356 136.917 153.953 136.917 153.478C136.917 152.77 136.728 152.228 136.352 151.852C135.985 151.467 135.532 151.274 134.995 151.274C134.457 151.274 134.005 151.467 133.637 151.852C133.279 152.228 133.1 152.77 133.1 153.478C133.1 154.186 133.274 154.733 133.624 155.118C133.982 155.494 134.43 155.682 134.968 155.682ZM149.613 149.648C150.527 149.648 151.262 149.93 151.817 150.495C152.382 151.05 152.664 151.83 152.664 152.833V157.201H150.782V153.089C150.782 152.506 150.635 152.063 150.339 151.758C150.043 151.444 149.64 151.288 149.129 151.288C148.619 151.288 148.211 151.444 147.906 151.758C147.611 152.063 147.463 152.506 147.463 153.089V157.201H145.581V153.089C145.581 152.506 145.433 152.063 145.138 151.758C144.842 151.444 144.439 151.288 143.928 151.288C143.408 151.288 142.996 151.444 142.692 151.758C142.396 152.063 142.248 152.506 142.248 153.089V157.201H140.366V149.755H142.248V150.656C142.49 150.342 142.799 150.096 143.175 149.917C143.561 149.737 143.982 149.648 144.439 149.648C145.021 149.648 145.541 149.773 145.998 150.024C146.455 150.266 146.809 150.616 147.06 151.073C147.302 150.642 147.651 150.297 148.108 150.038C148.574 149.778 149.076 149.648 149.613 149.648ZM161.506 153.317C161.506 153.586 161.488 153.828 161.452 154.043H156.009C156.053 154.58 156.242 155.001 156.573 155.306C156.905 155.611 157.312 155.763 157.796 155.763C158.495 155.763 158.992 155.463 159.288 154.863H161.317C161.102 155.579 160.69 156.171 160.081 156.637C159.472 157.094 158.724 157.322 157.836 157.322C157.12 157.322 156.475 157.165 155.901 156.852C155.337 156.529 154.893 156.077 154.571 155.494C154.257 154.912 154.1 154.24 154.1 153.478C154.1 152.708 154.257 152.031 154.571 151.449C154.884 150.866 155.323 150.418 155.888 150.105C156.452 149.791 157.102 149.634 157.836 149.634C158.544 149.634 159.176 149.787 159.732 150.091C160.296 150.396 160.731 150.831 161.035 151.395C161.349 151.951 161.506 152.591 161.506 153.317ZM159.557 152.779C159.548 152.296 159.373 151.91 159.033 151.624C158.692 151.328 158.276 151.18 157.783 151.18C157.317 151.18 156.923 151.323 156.6 151.61C156.286 151.888 156.094 152.278 156.022 152.779H159.557ZM168.232 149.339V151.691H171.39V153.183H168.232V155.669H171.794V157.201H166.35V147.807H171.794V149.339H168.232ZM177.764 149.648C178.651 149.648 179.368 149.93 179.914 150.495C180.461 151.05 180.734 151.83 180.734 152.833V157.201H178.853V153.089C178.853 152.497 178.705 152.045 178.409 151.731C178.113 151.409 177.71 151.247 177.199 151.247C176.68 151.247 176.268 151.409 175.963 151.731C175.667 152.045 175.519 152.497 175.519 153.089V157.201H173.638V149.755H175.519V150.683C175.77 150.36 176.088 150.109 176.474 149.93C176.868 149.742 177.298 149.648 177.764 149.648ZM185.574 149.634C186.13 149.634 186.618 149.746 187.039 149.97C187.46 150.185 187.792 150.468 188.034 150.817V149.755H189.929V157.255C189.929 157.945 189.79 158.559 189.512 159.096C189.234 159.643 188.818 160.073 188.262 160.386C187.707 160.709 187.035 160.87 186.246 160.87C185.189 160.87 184.32 160.624 183.639 160.131C182.967 159.638 182.586 158.966 182.497 158.115H184.365C184.463 158.456 184.674 158.724 184.996 158.921C185.328 159.128 185.727 159.231 186.193 159.231C186.739 159.231 187.183 159.065 187.523 158.733C187.864 158.411 188.034 157.918 188.034 157.255V156.099C187.792 156.449 187.456 156.74 187.026 156.973C186.605 157.206 186.121 157.322 185.574 157.322C184.947 157.322 184.374 157.161 183.854 156.838C183.334 156.516 182.922 156.063 182.618 155.481C182.322 154.889 182.174 154.213 182.174 153.451C182.174 152.699 182.322 152.031 182.618 151.449C182.922 150.866 183.33 150.418 183.841 150.105C184.36 149.791 184.938 149.634 185.574 149.634ZM188.034 153.478C188.034 153.021 187.944 152.632 187.765 152.309C187.586 151.977 187.344 151.727 187.039 151.556C186.735 151.377 186.408 151.288 186.058 151.288C185.709 151.288 185.386 151.373 185.09 151.543C184.795 151.713 184.553 151.964 184.365 152.296C184.186 152.618 184.096 153.003 184.096 153.451C184.096 153.899 184.186 154.294 184.365 154.634C184.553 154.966 184.795 155.221 185.09 155.4C185.395 155.579 185.718 155.669 186.058 155.669C186.408 155.669 186.735 155.584 187.039 155.414C187.344 155.234 187.586 154.984 187.765 154.661C187.944 154.329 188.034 153.935 188.034 153.478ZM193.783 147.256V157.201H191.901V147.256H193.783ZM196.73 148.868C196.399 148.868 196.121 148.765 195.897 148.559C195.682 148.344 195.574 148.08 195.574 147.766C195.574 147.453 195.682 147.193 195.897 146.987C196.121 146.772 196.399 146.664 196.73 146.664C197.062 146.664 197.335 146.772 197.55 146.987C197.774 147.193 197.886 147.453 197.886 147.766C197.886 148.08 197.774 148.344 197.55 148.559C197.335 148.765 197.062 148.868 196.73 148.868ZM197.658 149.755V157.201H195.776V149.755H197.658ZM202.5 157.322C201.891 157.322 201.345 157.215 200.861 157C200.377 156.776 199.992 156.475 199.705 156.099C199.427 155.723 199.275 155.306 199.248 154.849H201.143C201.179 155.136 201.318 155.373 201.56 155.561C201.81 155.75 202.12 155.844 202.487 155.844C202.845 155.844 203.123 155.772 203.32 155.629C203.526 155.485 203.629 155.302 203.629 155.078C203.629 154.836 203.504 154.657 203.253 154.54C203.011 154.415 202.621 154.28 202.084 154.137C201.528 154.002 201.071 153.864 200.713 153.72C200.363 153.577 200.059 153.357 199.799 153.062C199.548 152.766 199.423 152.367 199.423 151.865C199.423 151.453 199.539 151.077 199.772 150.737C200.014 150.396 200.354 150.127 200.793 149.93C201.241 149.733 201.766 149.634 202.366 149.634C203.253 149.634 203.961 149.858 204.489 150.306C205.018 150.745 205.309 151.341 205.363 152.094H203.562C203.535 151.798 203.41 151.565 203.186 151.395C202.971 151.216 202.68 151.126 202.312 151.126C201.972 151.126 201.707 151.189 201.519 151.314C201.34 151.44 201.25 151.615 201.25 151.839C201.25 152.089 201.376 152.282 201.627 152.417C201.878 152.542 202.267 152.672 202.796 152.806C203.334 152.941 203.777 153.08 204.127 153.223C204.476 153.366 204.776 153.59 205.027 153.895C205.287 154.191 205.421 154.585 205.43 155.078C205.43 155.508 205.309 155.893 205.067 156.233C204.834 156.574 204.494 156.843 204.046 157.04C203.607 157.228 203.092 157.322 202.5 157.322ZM211.302 149.648C211.867 149.648 212.369 149.773 212.808 150.024C213.247 150.266 213.587 150.629 213.829 151.113C214.08 151.588 214.206 152.161 214.206 152.833V157.201H212.324V153.089C212.324 152.497 212.176 152.045 211.88 151.731C211.585 151.409 211.182 151.247 210.671 151.247C210.151 151.247 209.739 151.409 209.434 151.731C209.139 152.045 208.991 152.497 208.991 153.089V157.201H207.109V147.256H208.991V150.683C209.233 150.36 209.555 150.109 209.958 149.93C210.362 149.742 210.81 149.648 211.302 149.648ZM221.348 150.831C221.59 150.49 221.921 150.208 222.342 149.984C222.772 149.751 223.261 149.634 223.807 149.634C224.443 149.634 225.017 149.791 225.528 150.105C226.047 150.418 226.455 150.866 226.751 151.449C227.055 152.022 227.208 152.69 227.208 153.451C227.208 154.213 227.055 154.889 226.751 155.481C226.455 156.063 226.047 156.516 225.528 156.838C225.017 157.161 224.443 157.322 223.807 157.322C223.261 157.322 222.777 157.21 222.356 156.986C221.944 156.762 221.608 156.48 221.348 156.139V160.749H219.466V149.755H221.348V150.831ZM225.286 153.451C225.286 153.003 225.192 152.618 225.003 152.296C224.824 151.964 224.582 151.713 224.278 151.543C223.982 151.373 223.659 151.288 223.31 151.288C222.969 151.288 222.647 151.377 222.342 151.556C222.047 151.727 221.805 151.977 221.617 152.309C221.437 152.641 221.348 153.03 221.348 153.478C221.348 153.926 221.437 154.316 221.617 154.648C221.805 154.979 222.047 155.234 222.342 155.414C222.647 155.584 222.969 155.669 223.31 155.669C223.659 155.669 223.982 155.579 224.278 155.4C224.582 155.221 224.824 154.966 225.003 154.634C225.192 154.303 225.286 153.908 225.286 153.451ZM230.591 150.911C230.833 150.517 231.146 150.208 231.532 149.984C231.926 149.76 232.374 149.648 232.876 149.648V151.624H232.378C231.787 151.624 231.339 151.762 231.034 152.04C230.739 152.318 230.591 152.802 230.591 153.492V157.201H228.709V149.755H230.591V150.911ZM233.794 153.451C233.794 152.699 233.941 152.031 234.237 151.449C234.542 150.866 234.949 150.418 235.46 150.105C235.98 149.791 236.558 149.634 237.194 149.634C237.749 149.634 238.233 149.746 238.645 149.97C239.067 150.194 239.403 150.477 239.653 150.817V149.755H241.548V157.201H239.653V156.113C239.412 156.462 239.076 156.753 238.645 156.986C238.224 157.21 237.736 157.322 237.18 157.322C236.553 157.322 235.98 157.161 235.46 156.838C234.949 156.516 234.542 156.063 234.237 155.481C233.941 154.889 233.794 154.213 233.794 153.451ZM239.653 153.478C239.653 153.021 239.564 152.632 239.385 152.309C239.205 151.977 238.964 151.727 238.659 151.556C238.354 151.377 238.027 151.288 237.678 151.288C237.328 151.288 237.006 151.373 236.71 151.543C236.414 151.713 236.172 151.964 235.984 152.296C235.805 152.618 235.716 153.003 235.716 153.451C235.716 153.899 235.805 154.294 235.984 154.634C236.172 154.966 236.414 155.221 236.71 155.4C237.015 155.579 237.337 155.669 237.678 155.669C238.027 155.669 238.354 155.584 238.659 155.414C238.964 155.234 239.205 154.984 239.385 154.661C239.564 154.329 239.653 153.935 239.653 153.478ZM243.037 153.478C243.037 152.708 243.194 152.036 243.507 151.462C243.821 150.88 244.255 150.432 244.811 150.118C245.366 149.796 246.003 149.634 246.719 149.634C247.642 149.634 248.404 149.867 249.004 150.333C249.613 150.79 250.021 151.435 250.227 152.269H248.198C248.09 151.946 247.907 151.695 247.647 151.516C247.396 151.328 247.082 151.234 246.706 151.234C246.168 151.234 245.743 151.431 245.429 151.825C245.115 152.21 244.959 152.761 244.959 153.478C244.959 154.186 245.115 154.737 245.429 155.131C245.743 155.517 246.168 155.709 246.706 155.709C247.467 155.709 247.965 155.369 248.198 154.688H250.227C250.021 155.494 249.613 156.135 249.004 156.61C248.395 157.085 247.633 157.322 246.719 157.322C246.003 157.322 245.366 157.165 244.811 156.852C244.255 156.529 243.821 156.081 243.507 155.508C243.194 154.925 243.037 154.249 243.037 153.478ZM253.931 151.301V154.903C253.931 155.154 253.989 155.337 254.105 155.454C254.231 155.561 254.437 155.615 254.724 155.615H255.597V157.201H254.415C252.829 157.201 252.036 156.431 252.036 154.889V151.301H251.149V149.755H252.036V147.914H253.931V149.755H255.597V151.301H253.931ZM258.039 148.868C257.708 148.868 257.43 148.765 257.206 148.559C256.991 148.344 256.883 148.08 256.883 147.766C256.883 147.453 256.991 147.193 257.206 146.987C257.43 146.772 257.708 146.664 258.039 146.664C258.371 146.664 258.644 146.772 258.859 146.987C259.083 147.193 259.195 147.453 259.195 147.766C259.195 148.08 259.083 148.344 258.859 148.559C258.644 148.765 258.371 148.868 258.039 148.868ZM258.967 149.755V157.201H257.085V149.755H258.967ZM260.476 153.478C260.476 152.708 260.633 152.036 260.947 151.462C261.26 150.88 261.695 150.432 262.25 150.118C262.806 149.796 263.442 149.634 264.159 149.634C265.082 149.634 265.843 149.867 266.444 150.333C267.053 150.79 267.46 151.435 267.667 152.269H265.637C265.53 151.946 265.346 151.695 265.086 151.516C264.835 151.328 264.522 151.234 264.145 151.234C263.608 151.234 263.182 151.431 262.868 151.825C262.555 152.21 262.398 152.761 262.398 153.478C262.398 154.186 262.555 154.737 262.868 155.131C263.182 155.517 263.608 155.709 264.145 155.709C264.907 155.709 265.404 155.369 265.637 154.688H267.667C267.46 155.494 267.053 156.135 266.444 156.61C265.834 157.085 265.073 157.322 264.159 157.322C263.442 157.322 262.806 157.165 262.25 156.852C261.695 156.529 261.26 156.081 260.947 155.508C260.633 154.925 260.476 154.249 260.476 153.478ZM276.101 153.317C276.101 153.586 276.083 153.828 276.047 154.043H270.604C270.649 154.58 270.837 155.001 271.169 155.306C271.5 155.611 271.908 155.763 272.392 155.763C273.09 155.763 273.588 155.463 273.883 154.863H275.913C275.698 155.579 275.286 156.171 274.676 156.637C274.067 157.094 273.319 157.322 272.432 157.322C271.715 157.322 271.07 157.165 270.497 156.852C269.932 156.529 269.489 156.077 269.166 155.494C268.852 154.912 268.696 154.24 268.696 153.478C268.696 152.708 268.852 152.031 269.166 151.449C269.48 150.866 269.919 150.418 270.483 150.105C271.048 149.791 271.697 149.634 272.432 149.634C273.14 149.634 273.771 149.787 274.327 150.091C274.891 150.396 275.326 150.831 275.631 151.395C275.944 151.951 276.101 152.591 276.101 153.317ZM274.152 152.779C274.143 152.296 273.969 151.91 273.628 151.624C273.288 151.328 272.871 151.18 272.378 151.18C271.912 151.18 271.518 151.323 271.195 151.61C270.882 151.888 270.689 152.278 270.618 152.779H274.152ZM145.773 168.755L143.596 176.201H141.566L140.209 171L138.851 176.201H136.809L134.618 168.755H136.526L137.843 174.427L139.268 168.755H141.257L142.655 174.414L143.972 168.755H145.773ZM151.119 168.648C151.683 168.648 152.185 168.773 152.624 169.024C153.063 169.266 153.404 169.629 153.646 170.113C153.896 170.588 154.022 171.161 154.022 171.833V176.201H152.14V172.089C152.14 171.497 151.992 171.045 151.697 170.731C151.401 170.409 150.998 170.247 150.487 170.247C149.967 170.247 149.555 170.409 149.251 170.731C148.955 171.045 148.807 171.497 148.807 172.089V176.201H146.926V166.256H148.807V169.683C149.049 169.36 149.372 169.109 149.775 168.93C150.178 168.742 150.626 168.648 151.119 168.648ZM156.9 167.868C156.568 167.868 156.291 167.765 156.067 167.559C155.852 167.344 155.744 167.08 155.744 166.766C155.744 166.453 155.852 166.193 156.067 165.987C156.291 165.772 156.568 165.664 156.9 165.664C157.231 165.664 157.505 165.772 157.72 165.987C157.944 166.193 158.056 166.453 158.056 166.766C158.056 167.08 157.944 167.344 157.72 167.559C157.505 167.765 157.231 167.868 156.9 167.868ZM157.827 168.755V176.201H155.946V168.755H157.827ZM161.702 166.256V176.201H159.821V166.256H161.702ZM170.617 172.317C170.617 172.586 170.599 172.828 170.563 173.043H165.12C165.165 173.58 165.353 174.001 165.685 174.306C166.016 174.611 166.424 174.763 166.908 174.763C167.607 174.763 168.104 174.463 168.4 173.863H170.429C170.214 174.579 169.802 175.171 169.193 175.637C168.583 176.094 167.835 176.322 166.948 176.322C166.231 176.322 165.586 176.165 165.013 175.852C164.448 175.529 164.005 175.077 163.682 174.494C163.369 173.912 163.212 173.24 163.212 172.478C163.212 171.708 163.369 171.031 163.682 170.449C163.996 169.866 164.435 169.418 164.999 169.105C165.564 168.791 166.213 168.634 166.948 168.634C167.656 168.634 168.288 168.787 168.843 169.091C169.408 169.396 169.842 169.831 170.147 170.395C170.46 170.951 170.617 171.591 170.617 172.317ZM168.668 171.779C168.659 171.296 168.485 170.91 168.144 170.624C167.804 170.328 167.387 170.18 166.894 170.18C166.428 170.18 166.034 170.323 165.712 170.61C165.398 170.888 165.205 171.278 165.134 171.779H168.668ZM185.784 168.755L183.607 176.201H181.577L180.22 171L178.862 176.201H176.819L174.629 168.755H176.537L177.854 174.427L179.279 168.755H181.268L182.666 174.414L183.983 168.755H185.784ZM186.453 172.451C186.453 171.699 186.6 171.031 186.896 170.449C187.201 169.866 187.608 169.418 188.119 169.105C188.639 168.791 189.217 168.634 189.853 168.634C190.408 168.634 190.892 168.746 191.304 168.97C191.725 169.194 192.061 169.477 192.312 169.817V168.755H194.207V176.201H192.312V175.113C192.07 175.462 191.734 175.753 191.304 175.986C190.883 176.21 190.395 176.322 189.839 176.322C189.212 176.322 188.639 176.161 188.119 175.838C187.608 175.516 187.201 175.063 186.896 174.481C186.6 173.889 186.453 173.213 186.453 172.451ZM192.312 172.478C192.312 172.021 192.223 171.632 192.044 171.309C191.864 170.977 191.622 170.727 191.318 170.556C191.013 170.377 190.686 170.288 190.337 170.288C189.987 170.288 189.665 170.373 189.369 170.543C189.073 170.713 188.831 170.964 188.643 171.296C188.464 171.618 188.374 172.003 188.374 172.451C188.374 172.899 188.464 173.294 188.643 173.634C188.831 173.966 189.073 174.221 189.369 174.4C189.674 174.579 189.996 174.669 190.337 174.669C190.686 174.669 191.013 174.584 191.318 174.414C191.622 174.234 191.864 173.984 192.044 173.661C192.223 173.329 192.312 172.935 192.312 172.478ZM197.134 167.868C196.802 167.868 196.524 167.765 196.3 167.559C196.085 167.344 195.978 167.08 195.978 166.766C195.978 166.453 196.085 166.193 196.3 165.987C196.524 165.772 196.802 165.664 197.134 165.664C197.465 165.664 197.739 165.772 197.954 165.987C198.178 166.193 198.29 166.453 198.29 166.766C198.29 167.08 198.178 167.344 197.954 167.559C197.739 167.765 197.465 167.868 197.134 167.868ZM198.061 168.755V176.201H196.179V168.755H198.061ZM202.245 170.301V173.903C202.245 174.154 202.303 174.337 202.42 174.454C202.545 174.561 202.751 174.615 203.038 174.615H203.912V176.201H202.729C201.143 176.201 200.35 175.431 200.35 173.889V170.301H199.463V168.755H200.35V166.914H202.245V168.755H203.912V170.301H202.245ZM206.354 167.868C206.022 167.868 205.745 167.765 205.521 167.559C205.305 167.344 205.198 167.08 205.198 166.766C205.198 166.453 205.305 166.193 205.521 165.987C205.745 165.772 206.022 165.664 206.354 165.664C206.685 165.664 206.959 165.772 207.174 165.987C207.398 166.193 207.51 166.453 207.51 166.766C207.51 167.08 207.398 167.344 207.174 167.559C206.959 167.765 206.685 167.868 206.354 167.868ZM207.281 168.755V176.201H205.4V168.755H207.281ZM213.401 168.648C214.288 168.648 215.004 168.93 215.551 169.495C216.098 170.05 216.371 170.83 216.371 171.833V176.201H214.489V172.089C214.489 171.497 214.341 171.045 214.046 170.731C213.75 170.409 213.347 170.247 212.836 170.247C212.316 170.247 211.904 170.409 211.6 170.731C211.304 171.045 211.156 171.497 211.156 172.089V176.201H209.275V168.755H211.156V169.683C211.407 169.36 211.725 169.109 212.11 168.93C212.505 168.742 212.935 168.648 213.401 168.648ZM221.211 168.634C221.767 168.634 222.255 168.746 222.676 168.97C223.097 169.185 223.429 169.468 223.671 169.817V168.755H225.566V176.255C225.566 176.945 225.427 177.559 225.149 178.096C224.871 178.643 224.455 179.073 223.899 179.386C223.344 179.709 222.672 179.87 221.883 179.87C220.826 179.87 219.957 179.624 219.276 179.131C218.604 178.638 218.223 177.966 218.133 177.115H220.001C220.1 177.456 220.311 177.724 220.633 177.921C220.965 178.128 221.363 178.231 221.829 178.231C222.376 178.231 222.819 178.065 223.16 177.733C223.5 177.411 223.671 176.918 223.671 176.255V175.099C223.429 175.449 223.093 175.74 222.663 175.973C222.241 176.206 221.758 176.322 221.211 176.322C220.584 176.322 220.01 176.161 219.491 175.838C218.971 175.516 218.559 175.063 218.254 174.481C217.959 173.889 217.811 173.213 217.811 172.451C217.811 171.699 217.959 171.031 218.254 170.449C218.559 169.866 218.967 169.418 219.477 169.105C219.997 168.791 220.575 168.634 221.211 168.634ZM223.671 172.478C223.671 172.021 223.581 171.632 223.402 171.309C223.223 170.977 222.981 170.727 222.676 170.556C222.371 170.377 222.044 170.288 221.695 170.288C221.345 170.288 221.023 170.373 220.727 170.543C220.432 170.713 220.19 170.964 220.001 171.296C219.822 171.618 219.733 172.003 219.733 172.451C219.733 172.899 219.822 173.294 220.001 173.634C220.19 173.966 220.432 174.221 220.727 174.4C221.032 174.579 221.354 174.669 221.695 174.669C222.044 174.669 222.371 174.584 222.676 174.414C222.981 174.234 223.223 173.984 223.402 173.661C223.581 173.329 223.671 172.935 223.671 172.478Z" fill="#878CA1"/>
<g filter="url(#filter1_dd_1813_9445)">
<rect x="36.4399" y="198.641" width="288.12" height="505.68" rx="6.72" fill="white"/>
<path d="M100.72 239.651C100.72 240.341 100.553 240.988 100.221 241.592C99.9004 242.195 99.3891 242.682 98.6868 243.052C97.9969 243.421 97.1222 243.606 96.0627 243.606H93.9005V248.559H91.3133V235.66H96.0627C97.0606 235.66 97.9107 235.832 98.6129 236.177C99.3152 236.522 99.8388 236.996 100.184 237.6C100.541 238.204 100.72 238.887 100.72 239.651ZM95.9518 241.518C96.6664 241.518 97.1961 241.358 97.5411 241.037C97.886 240.705 98.0585 240.243 98.0585 239.651C98.0585 238.395 97.3563 237.766 95.9518 237.766H93.9005V241.518H95.9518ZM112.037 238.321V248.559H109.431V247.265C109.098 247.709 108.661 248.06 108.119 248.318C107.589 248.565 107.01 248.688 106.382 248.688C105.581 248.688 104.873 248.522 104.257 248.189C103.641 247.844 103.154 247.345 102.797 246.692C102.452 246.027 102.279 245.238 102.279 244.327V238.321H104.867V243.957C104.867 244.77 105.07 245.399 105.476 245.842C105.883 246.273 106.437 246.489 107.14 246.489C107.854 246.489 108.415 246.273 108.821 245.842C109.228 245.399 109.431 244.77 109.431 243.957V238.321H112.037ZM117.417 240.446V245.399C117.417 245.743 117.497 245.996 117.657 246.156C117.83 246.304 118.113 246.378 118.507 246.378H119.708V248.559H118.082C115.902 248.559 114.811 247.499 114.811 245.38V240.446H113.592V238.321H114.811V235.789H117.417V238.321H119.708V240.446H117.417ZM128.615 240.446V245.399C128.615 245.743 128.695 245.996 128.856 246.156C129.028 246.304 129.311 246.378 129.706 246.378H130.907V248.559H129.281C127.1 248.559 126.01 247.499 126.01 245.38V240.446H124.79V238.321H126.01V235.789H128.615V238.321H130.907V240.446H128.615ZM138.349 238.173C139.125 238.173 139.815 238.345 140.418 238.69C141.022 239.023 141.49 239.522 141.823 240.187C142.168 240.84 142.34 241.629 142.34 242.553V248.559H139.753V242.904C139.753 242.091 139.55 241.468 139.143 241.037C138.737 240.594 138.182 240.372 137.48 240.372C136.766 240.372 136.199 240.594 135.78 241.037C135.373 241.468 135.17 242.091 135.17 242.904V248.559H132.583V234.883H135.17V239.596C135.503 239.152 135.946 238.807 136.501 238.561C137.055 238.302 137.671 238.173 138.349 238.173ZM154.133 243.218C154.133 243.587 154.108 243.92 154.059 244.216H146.575C146.636 244.955 146.895 245.534 147.351 245.953C147.807 246.372 148.367 246.581 149.033 246.581C149.994 246.581 150.677 246.169 151.084 245.343H153.874C153.579 246.329 153.012 247.142 152.174 247.782C151.336 248.411 150.308 248.725 149.088 248.725C148.102 248.725 147.215 248.509 146.427 248.078C145.651 247.635 145.041 247.012 144.597 246.212C144.166 245.411 143.951 244.487 143.951 243.44C143.951 242.38 144.166 241.45 144.597 240.649C145.029 239.848 145.632 239.232 146.408 238.801C147.185 238.37 148.078 238.154 149.088 238.154C150.061 238.154 150.93 238.364 151.694 238.783C152.47 239.202 153.067 239.799 153.486 240.575C153.917 241.339 154.133 242.22 154.133 243.218ZM151.453 242.479C151.441 241.813 151.201 241.284 150.733 240.889C150.265 240.483 149.692 240.28 149.014 240.28C148.373 240.28 147.831 240.477 147.388 240.871C146.957 241.253 146.692 241.789 146.593 242.479H151.453ZM174.248 238.321L171.254 248.559H168.464L166.597 241.407L164.731 248.559H161.922L158.91 238.321H161.534L163.345 246.119L165.304 238.321H168.039L169.961 246.101L171.772 238.321H174.248ZM180.009 248.725C179.023 248.725 178.136 248.509 177.348 248.078C176.559 247.635 175.937 247.012 175.481 246.212C175.038 245.411 174.816 244.487 174.816 243.44C174.816 242.392 175.044 241.468 175.5 240.668C175.968 239.867 176.603 239.251 177.403 238.82C178.204 238.376 179.097 238.154 180.083 238.154C181.069 238.154 181.962 238.376 182.763 238.82C183.563 239.251 184.192 239.867 184.648 240.668C185.116 241.468 185.35 242.392 185.35 243.44C185.35 244.487 185.11 245.411 184.629 246.212C184.161 247.012 183.52 247.635 182.707 248.078C181.906 248.509 181.007 248.725 180.009 248.725ZM180.009 246.47C180.477 246.47 180.915 246.359 181.321 246.138C181.74 245.904 182.073 245.559 182.319 245.103C182.565 244.647 182.689 244.093 182.689 243.44C182.689 242.466 182.43 241.721 181.913 241.204C181.407 240.674 180.785 240.409 180.046 240.409C179.307 240.409 178.685 240.674 178.18 241.204C177.687 241.721 177.44 242.466 177.44 243.44C177.44 244.413 177.681 245.164 178.161 245.694C178.654 246.212 179.27 246.47 180.009 246.47ZM189.65 239.91C189.983 239.368 190.414 238.943 190.944 238.635C191.486 238.327 192.102 238.173 192.792 238.173V240.889H192.108C191.295 240.889 190.679 241.08 190.26 241.462C189.853 241.844 189.65 242.509 189.65 243.458V248.559H187.063V238.321H189.65V239.91ZM193.684 243.403C193.684 242.368 193.887 241.45 194.294 240.649C194.713 239.848 195.28 239.232 195.994 238.801C196.709 238.37 197.503 238.154 198.378 238.154C199.043 238.154 199.678 238.302 200.281 238.598C200.885 238.881 201.366 239.263 201.723 239.744V234.883H204.347V248.559H201.723V247.043C201.403 247.548 200.953 247.955 200.374 248.263C199.795 248.571 199.123 248.725 198.36 248.725C197.497 248.725 196.709 248.503 195.994 248.06C195.28 247.616 194.713 246.994 194.294 246.193C193.887 245.38 193.684 244.45 193.684 243.403ZM201.741 243.44C201.741 242.811 201.618 242.275 201.372 241.832C201.125 241.376 200.793 241.031 200.374 240.797C199.955 240.551 199.505 240.427 199.025 240.427C198.544 240.427 198.101 240.544 197.694 240.779C197.288 241.013 196.955 241.358 196.696 241.813C196.45 242.257 196.327 242.787 196.327 243.403C196.327 244.019 196.45 244.561 196.696 245.029C196.955 245.485 197.288 245.836 197.694 246.082C198.113 246.329 198.557 246.452 199.025 246.452C199.505 246.452 199.955 246.335 200.374 246.101C200.793 245.854 201.125 245.509 201.372 245.066C201.618 244.61 201.741 244.068 201.741 243.44ZM210.607 248.725C209.769 248.725 209.018 248.577 208.352 248.281C207.687 247.973 207.157 247.561 206.763 247.043C206.381 246.526 206.172 245.953 206.135 245.325H208.74C208.79 245.719 208.981 246.045 209.313 246.304C209.658 246.563 210.083 246.692 210.588 246.692C211.081 246.692 211.463 246.594 211.734 246.396C212.018 246.199 212.159 245.947 212.159 245.639C212.159 245.306 211.987 245.06 211.642 244.9C211.309 244.727 210.773 244.542 210.034 244.345C209.27 244.16 208.642 243.969 208.149 243.772C207.669 243.575 207.25 243.273 206.892 242.867C206.547 242.46 206.375 241.912 206.375 241.222C206.375 240.655 206.535 240.138 206.855 239.67C207.188 239.202 207.656 238.832 208.26 238.561C208.876 238.29 209.597 238.154 210.422 238.154C211.642 238.154 212.615 238.462 213.342 239.078C214.069 239.682 214.469 240.501 214.543 241.536H212.067C212.03 241.13 211.857 240.809 211.549 240.575C211.254 240.329 210.853 240.206 210.348 240.206C209.88 240.206 209.517 240.292 209.258 240.464C209.011 240.637 208.888 240.877 208.888 241.185C208.888 241.53 209.061 241.795 209.406 241.98C209.751 242.152 210.287 242.331 211.013 242.516C211.753 242.7 212.362 242.891 212.843 243.089C213.323 243.286 213.736 243.594 214.081 244.013C214.438 244.419 214.623 244.961 214.636 245.639C214.636 246.23 214.469 246.76 214.137 247.228C213.816 247.696 213.348 248.066 212.732 248.337C212.128 248.596 211.42 248.725 210.607 248.725ZM222.105 237.101C221.649 237.101 221.267 236.959 220.959 236.676C220.664 236.38 220.516 236.017 220.516 235.586C220.516 235.154 220.664 234.797 220.959 234.514C221.267 234.218 221.649 234.07 222.105 234.07C222.561 234.07 222.937 234.218 223.232 234.514C223.54 234.797 223.694 235.154 223.694 235.586C223.694 236.017 223.54 236.38 223.232 236.676C222.937 236.959 222.561 237.101 222.105 237.101ZM223.38 238.321V248.559H220.793V238.321H223.38ZM231.425 238.173C232.645 238.173 233.63 238.561 234.382 239.337C235.133 240.101 235.509 241.173 235.509 242.553V248.559H232.922V242.904C232.922 242.091 232.719 241.468 232.312 241.037C231.906 240.594 231.351 240.372 230.649 240.372C229.934 240.372 229.368 240.594 228.949 241.037C228.542 241.468 228.339 242.091 228.339 242.904V248.559H225.752V238.321H228.339V239.596C228.684 239.152 229.121 238.807 229.651 238.561C230.193 238.302 230.784 238.173 231.425 238.173ZM245.015 240.446V245.399C245.015 245.743 245.096 245.996 245.256 246.156C245.428 246.304 245.712 246.378 246.106 246.378H247.307V248.559H245.681C243.5 248.559 242.41 247.499 242.41 245.38V240.446H241.19V238.321H242.41V235.789H245.015V238.321H247.307V240.446H245.015ZM254.749 238.173C255.525 238.173 256.215 238.345 256.819 238.69C257.422 239.023 257.89 239.522 258.223 240.187C258.568 240.84 258.74 241.629 258.74 242.553V248.559H256.153V242.904C256.153 242.091 255.95 241.468 255.543 241.037C255.137 240.594 254.582 240.372 253.88 240.372C253.166 240.372 252.599 240.594 252.18 241.037C251.774 241.468 251.57 242.091 251.57 242.904V248.559H248.983V234.883H251.57V239.596C251.903 239.152 252.346 238.807 252.901 238.561C253.455 238.302 254.071 238.173 254.749 238.173ZM270.533 243.218C270.533 243.587 270.509 243.92 270.459 244.216H262.975C263.036 244.955 263.295 245.534 263.751 245.953C264.207 246.372 264.767 246.581 265.433 246.581C266.394 246.581 267.077 246.169 267.484 245.343H270.274C269.979 246.329 269.412 247.142 268.574 247.782C267.737 248.411 266.708 248.725 265.488 248.725C264.503 248.725 263.615 248.509 262.827 248.078C262.051 247.635 261.441 247.012 260.997 246.212C260.566 245.411 260.351 244.487 260.351 243.44C260.351 242.38 260.566 241.45 260.997 240.649C261.429 239.848 262.032 239.232 262.809 238.801C263.585 238.37 264.478 238.154 265.488 238.154C266.461 238.154 267.33 238.364 268.094 238.783C268.87 239.202 269.467 239.799 269.886 240.575C270.318 241.339 270.533 242.22 270.533 243.218ZM267.854 242.479C267.841 241.813 267.601 241.284 267.133 240.889C266.665 240.483 266.092 240.28 265.414 240.28C264.774 240.28 264.231 240.477 263.788 240.871C263.357 241.253 263.092 241.789 262.993 242.479H267.854ZM63.2208 267.44C63.2208 266.38 63.4364 265.456 63.8676 264.668C64.2988 263.867 64.8963 263.251 65.6601 262.82C66.424 262.376 67.2987 262.154 68.2843 262.154C69.5532 262.154 70.6004 262.475 71.4259 263.115C72.2636 263.744 72.8242 264.631 73.1076 265.776H70.3171C70.1692 265.333 69.9167 264.988 69.5594 264.742C69.2144 264.483 68.7832 264.353 68.2658 264.353C67.5266 264.353 66.9414 264.625 66.5102 265.167C66.079 265.696 65.8634 266.454 65.8634 267.44C65.8634 268.413 66.079 269.171 66.5102 269.713C66.9414 270.242 67.5266 270.507 68.2658 270.507C69.313 270.507 69.9968 270.039 70.3171 269.103H73.1076C72.8242 270.212 72.2636 271.093 71.4259 271.745C70.5881 272.398 69.5409 272.725 68.2843 272.725C67.2987 272.725 66.424 272.509 65.6601 272.078C64.8963 271.635 64.2988 271.019 63.8676 270.23C63.4364 269.429 63.2208 268.499 63.2208 267.44ZM79.3642 272.725C78.3786 272.725 77.4915 272.509 76.7031 272.078C75.9146 271.635 75.2924 271.012 74.8366 270.212C74.3931 269.411 74.1713 268.487 74.1713 267.44C74.1713 266.392 74.3992 265.468 74.8551 264.668C75.3232 263.867 75.9577 263.251 76.7585 262.82C77.5593 262.376 78.4525 262.154 79.4381 262.154C80.4237 262.154 81.3169 262.376 82.1177 262.82C82.9185 263.251 83.5468 263.867 84.0027 264.668C84.4708 265.468 84.7049 266.392 84.7049 267.44C84.7049 268.487 84.4647 269.411 83.9842 270.212C83.516 271.012 82.8754 271.635 82.0623 272.078C81.2615 272.509 80.3621 272.725 79.3642 272.725ZM79.3642 270.47C79.8323 270.47 80.2697 270.359 80.6763 270.138C81.0951 269.904 81.4278 269.559 81.6742 269.103C81.9206 268.647 82.0438 268.093 82.0438 267.44C82.0438 266.466 81.7851 265.721 81.2676 265.204C80.7625 264.674 80.1403 264.409 79.4011 264.409C78.6619 264.409 78.0398 264.674 77.5347 265.204C77.0419 265.721 76.7955 266.466 76.7955 267.44C76.7955 268.413 77.0357 269.164 77.5162 269.694C78.009 270.212 78.625 270.47 79.3642 270.47ZM89.0051 263.91C89.3378 263.368 89.769 262.943 90.2987 262.635C90.8408 262.327 91.4568 262.173 92.1467 262.173V264.889H91.463C90.6498 264.889 90.0338 265.08 89.615 265.462C89.2084 265.844 89.0051 266.509 89.0051 267.458V272.559H86.4179V262.321H89.0051V263.91ZM96.2917 263.91C96.6244 263.368 97.0556 262.943 97.5853 262.635C98.1274 262.327 98.7434 262.173 99.4333 262.173V264.889H98.7496C97.9364 264.889 97.3204 265.08 96.9016 265.462C96.495 265.844 96.2917 266.509 96.2917 267.458V272.559H93.7045V262.321H96.2917V263.91ZM110.508 267.218C110.508 267.587 110.484 267.92 110.434 268.216H102.95C103.012 268.955 103.27 269.534 103.726 269.953C104.182 270.372 104.743 270.581 105.408 270.581C106.369 270.581 107.053 270.169 107.459 269.343H110.25C109.954 270.329 109.387 271.142 108.549 271.782C107.712 272.411 106.683 272.725 105.463 272.725C104.478 272.725 103.591 272.509 102.802 272.078C102.026 271.635 101.416 271.012 100.973 270.212C100.541 269.411 100.326 268.487 100.326 267.44C100.326 266.38 100.541 265.45 100.973 264.649C101.404 263.848 102.008 263.232 102.784 262.801C103.56 262.37 104.453 262.154 105.463 262.154C106.437 262.154 107.305 262.364 108.069 262.783C108.845 263.202 109.443 263.799 109.862 264.575C110.293 265.339 110.508 266.22 110.508 267.218ZM107.829 266.479C107.816 265.813 107.576 265.284 107.108 264.889C106.64 264.483 106.067 264.28 105.389 264.28C104.749 264.28 104.207 264.477 103.763 264.871C103.332 265.253 103.067 265.789 102.968 266.479H107.829ZM111.547 267.44C111.547 266.38 111.762 265.456 112.193 264.668C112.625 263.867 113.222 263.251 113.986 262.82C114.75 262.376 115.625 262.154 116.61 262.154C117.879 262.154 118.926 262.475 119.752 263.115C120.59 263.744 121.15 264.631 121.433 265.776H118.643C118.495 265.333 118.243 264.988 117.885 264.742C117.54 264.483 117.109 264.353 116.592 264.353C115.853 264.353 115.267 264.625 114.836 265.167C114.405 265.696 114.189 266.454 114.189 267.44C114.189 268.413 114.405 269.171 114.836 269.713C115.267 270.242 115.853 270.507 116.592 270.507C117.639 270.507 118.323 270.039 118.643 269.103H121.433C121.15 270.212 120.59 271.093 119.752 271.745C118.914 272.398 117.867 272.725 116.61 272.725C115.625 272.725 114.75 272.509 113.986 272.078C113.222 271.635 112.625 271.019 112.193 270.23C111.762 269.429 111.547 268.499 111.547 267.44ZM126.156 264.446V269.399C126.156 269.743 126.236 269.996 126.396 270.156C126.569 270.304 126.852 270.378 127.247 270.378H128.448V272.559H126.822C124.641 272.559 123.551 271.499 123.551 269.38V264.446H122.331V262.321H123.551V259.789H126.156V262.321H128.448V264.446H126.156ZM138.889 272.725C137.903 272.725 137.016 272.509 136.227 272.078C135.439 271.635 134.817 271.012 134.361 270.212C133.917 269.411 133.696 268.487 133.696 267.44C133.696 266.392 133.924 265.468 134.379 264.668C134.848 263.867 135.482 263.251 136.283 262.82C137.084 262.376 137.977 262.154 138.962 262.154C139.948 262.154 140.841 262.376 141.642 262.82C142.443 263.251 143.071 263.867 143.527 264.668C143.995 265.468 144.229 266.392 144.229 267.44C144.229 268.487 143.989 269.411 143.509 270.212C143.04 271.012 142.4 271.635 141.587 272.078C140.786 272.509 139.886 272.725 138.889 272.725ZM138.889 270.47C139.357 270.47 139.794 270.359 140.201 270.138C140.62 269.904 140.952 269.559 141.199 269.103C141.445 268.647 141.568 268.093 141.568 267.44C141.568 266.466 141.309 265.721 140.792 265.204C140.287 264.674 139.665 264.409 138.926 264.409C138.186 264.409 137.564 264.674 137.059 265.204C136.566 265.721 136.32 266.466 136.32 267.44C136.32 268.413 136.56 269.164 137.041 269.694C137.533 270.212 138.149 270.47 138.889 270.47ZM148.529 263.91C148.862 263.368 149.293 262.943 149.823 262.635C150.365 262.327 150.981 262.173 151.671 262.173V264.889H150.987C150.174 264.889 149.558 265.08 149.139 265.462C148.733 265.844 148.529 266.509 148.529 267.458V272.559H145.942V262.321H148.529V263.91ZM152.564 267.403C152.564 266.368 152.767 265.45 153.173 264.649C153.592 263.848 154.159 263.232 154.874 262.801C155.588 262.37 156.383 262.154 157.258 262.154C157.923 262.154 158.557 262.302 159.161 262.598C159.765 262.881 160.245 263.263 160.602 263.744V258.883H163.227V272.559H160.602V271.043C160.282 271.548 159.832 271.955 159.253 272.263C158.674 272.571 158.003 272.725 157.239 272.725C156.377 272.725 155.588 272.503 154.874 272.06C154.159 271.616 153.592 270.994 153.173 270.193C152.767 269.38 152.564 268.45 152.564 267.403ZM160.621 267.44C160.621 266.811 160.498 266.275 160.251 265.832C160.005 265.376 159.672 265.031 159.253 264.797C158.834 264.551 158.385 264.427 157.904 264.427C157.424 264.427 156.98 264.544 156.574 264.779C156.167 265.013 155.835 265.358 155.576 265.813C155.329 266.257 155.206 266.787 155.206 267.403C155.206 268.019 155.329 268.561 155.576 269.029C155.835 269.485 156.167 269.836 156.574 270.082C156.993 270.329 157.436 270.452 157.904 270.452C158.385 270.452 158.834 270.335 159.253 270.101C159.672 269.854 160.005 269.509 160.251 269.066C160.498 268.61 160.621 268.068 160.621 267.44ZM175.086 267.218C175.086 267.587 175.061 267.92 175.012 268.216H167.527C167.589 268.955 167.848 269.534 168.304 269.953C168.759 270.372 169.32 270.581 169.985 270.581C170.946 270.581 171.63 270.169 172.037 269.343H174.827C174.531 270.329 173.965 271.142 173.127 271.782C172.289 272.411 171.26 272.725 170.041 272.725C169.055 272.725 168.168 272.509 167.38 272.078C166.603 271.635 165.994 271.012 165.55 270.212C165.119 269.411 164.903 268.487 164.903 267.44C164.903 266.38 165.119 265.45 165.55 264.649C165.981 263.848 166.585 263.232 167.361 262.801C168.137 262.37 169.031 262.154 170.041 262.154C171.014 262.154 171.883 262.364 172.646 262.783C173.423 263.202 174.02 263.799 174.439 264.575C174.87 265.339 175.086 266.22 175.086 267.218ZM172.406 266.479C172.394 265.813 172.154 265.284 171.685 264.889C171.217 264.483 170.644 264.28 169.967 264.28C169.326 264.28 168.784 264.477 168.341 264.871C167.909 265.253 167.645 265.789 167.546 266.479H172.406ZM179.377 263.91C179.709 263.368 180.14 262.943 180.67 262.635C181.212 262.327 181.828 262.173 182.518 262.173V264.889H181.834C181.021 264.889 180.405 265.08 179.986 265.462C179.58 265.844 179.377 266.509 179.377 267.458V272.559H176.789V262.321H179.377V263.91ZM191.307 264.446V269.399C191.307 269.743 191.387 269.996 191.547 270.156C191.72 270.304 192.003 270.378 192.397 270.378H193.598V272.559H191.972C189.792 272.559 188.701 271.499 188.701 269.38V264.446H187.482V262.321H188.701V259.789H191.307V262.321H193.598V264.446H191.307ZM199.821 272.725C198.835 272.725 197.948 272.509 197.159 272.078C196.371 271.635 195.749 271.012 195.293 270.212C194.849 269.411 194.628 268.487 194.628 267.44C194.628 266.392 194.856 265.468 195.311 264.668C195.78 263.867 196.414 263.251 197.215 262.82C198.016 262.376 198.909 262.154 199.894 262.154C200.88 262.154 201.773 262.376 202.574 262.82C203.375 263.251 204.003 263.867 204.459 264.668C204.927 265.468 205.161 266.392 205.161 267.44C205.161 268.487 204.921 269.411 204.441 270.212C203.972 271.012 203.332 271.635 202.519 272.078C201.718 272.509 200.818 272.725 199.821 272.725ZM199.821 270.47C200.289 270.47 200.726 270.359 201.133 270.138C201.552 269.904 201.884 269.559 202.131 269.103C202.377 268.647 202.5 268.093 202.5 267.44C202.5 266.466 202.241 265.721 201.724 265.204C201.219 264.674 200.597 264.409 199.858 264.409C199.118 264.409 198.496 264.674 197.991 265.204C197.498 265.721 197.252 266.466 197.252 267.44C197.252 268.413 197.492 269.164 197.973 269.694C198.465 270.212 199.081 270.47 199.821 270.47ZM210.428 267.44C210.428 266.38 210.643 265.456 211.074 264.668C211.506 263.867 212.103 263.251 212.867 262.82C213.631 262.376 214.506 262.154 215.491 262.154C216.76 262.154 217.807 262.475 218.633 263.115C219.471 263.744 220.031 264.631 220.314 265.776H217.524C217.376 265.333 217.124 264.988 216.766 264.742C216.421 264.483 215.99 264.353 215.473 264.353C214.733 264.353 214.148 264.625 213.717 265.167C213.286 265.696 213.07 266.454 213.07 267.44C213.07 268.413 213.286 269.171 213.717 269.713C214.148 270.242 214.733 270.507 215.473 270.507C216.52 270.507 217.204 270.039 217.524 269.103H220.314C220.031 270.212 219.471 271.093 218.633 271.745C217.795 272.398 216.748 272.725 215.491 272.725C214.506 272.725 213.631 272.509 212.867 272.078C212.103 271.635 211.506 271.019 211.074 270.23C210.643 269.429 210.428 268.499 210.428 267.44ZM224.612 263.91C224.945 263.368 225.376 262.943 225.906 262.635C226.448 262.327 227.064 262.173 227.754 262.173V264.889H227.07C226.257 264.889 225.641 265.08 225.222 265.462C224.815 265.844 224.612 266.509 224.612 267.458V272.559H222.025V262.321H224.612V263.91ZM238.829 267.218C238.829 267.587 238.804 267.92 238.755 268.216H231.27C231.332 268.955 231.591 269.534 232.047 269.953C232.502 270.372 233.063 270.581 233.728 270.581C234.689 270.581 235.373 270.169 235.78 269.343H238.57C238.274 270.329 237.708 271.142 236.87 271.782C236.032 272.411 235.003 272.725 233.784 272.725C232.798 272.725 231.911 272.509 231.123 272.078C230.346 271.635 229.737 271.012 229.293 270.212C228.862 269.411 228.646 268.487 228.646 267.44C228.646 266.38 228.862 265.45 229.293 264.649C229.724 263.848 230.328 263.232 231.104 262.801C231.88 262.37 232.774 262.154 233.784 262.154C234.757 262.154 235.626 262.364 236.389 262.783C237.166 263.202 237.763 263.799 238.182 264.575C238.613 265.339 238.829 266.22 238.829 267.218ZM236.149 266.479C236.137 265.813 235.897 265.284 235.428 264.889C234.96 264.483 234.387 264.28 233.71 264.28C233.069 264.28 232.527 264.477 232.084 264.871C231.652 265.253 231.388 265.789 231.289 266.479H236.149ZM239.867 267.403C239.867 266.368 240.07 265.45 240.477 264.649C240.896 263.848 241.456 263.232 242.159 262.801C242.873 262.37 243.668 262.154 244.543 262.154C245.306 262.154 245.972 262.308 246.538 262.616C247.117 262.924 247.579 263.312 247.924 263.781V262.321H250.53V272.559H247.924V271.062C247.592 271.542 247.13 271.943 246.538 272.263C245.959 272.571 245.288 272.725 244.524 272.725C243.662 272.725 242.873 272.503 242.159 272.06C241.456 271.616 240.896 270.994 240.477 270.193C240.07 269.38 239.867 268.45 239.867 267.403ZM247.924 267.44C247.924 266.811 247.801 266.275 247.555 265.832C247.308 265.376 246.976 265.031 246.557 264.797C246.138 264.551 245.688 264.427 245.208 264.427C244.727 264.427 244.284 264.544 243.877 264.779C243.471 265.013 243.138 265.358 242.879 265.813C242.633 266.257 242.51 266.787 242.51 267.403C242.51 268.019 242.633 268.561 242.879 269.029C243.138 269.485 243.471 269.836 243.877 270.082C244.296 270.329 244.74 270.452 245.208 270.452C245.688 270.452 246.138 270.335 246.557 270.101C246.976 269.854 247.308 269.509 247.555 269.066C247.801 268.61 247.924 268.068 247.924 267.44ZM255.884 264.446V269.399C255.884 269.743 255.964 269.996 256.125 270.156C256.297 270.304 256.58 270.378 256.975 270.378H258.176V272.559H256.55C254.369 272.559 253.279 271.499 253.279 269.38V264.446H252.059V262.321H253.279V259.789H255.884V262.321H258.176V264.446H255.884ZM269.369 267.218C269.369 267.587 269.345 267.92 269.295 268.216H261.811C261.872 268.955 262.131 269.534 262.587 269.953C263.043 270.372 263.603 270.581 264.269 270.581C265.23 270.581 265.913 270.169 266.32 269.343H269.11C268.815 270.329 268.248 271.142 267.41 271.782C266.573 272.411 265.544 272.725 264.324 272.725C263.339 272.725 262.451 272.509 261.663 272.078C260.887 271.635 260.277 271.012 259.833 270.212C259.402 269.411 259.187 268.487 259.187 267.44C259.187 266.38 259.402 265.45 259.833 264.649C260.265 263.848 260.868 263.232 261.645 262.801C262.421 262.37 263.314 262.154 264.324 262.154C265.297 262.154 266.166 262.364 266.93 262.783C267.706 263.202 268.303 263.799 268.722 264.575C269.154 265.339 269.369 266.22 269.369 267.218ZM266.69 266.479C266.677 265.813 266.437 265.284 265.969 264.889C265.501 264.483 264.928 264.28 264.25 264.28C263.61 264.28 263.067 264.477 262.624 264.871C262.193 265.253 261.928 265.789 261.829 266.479H266.69ZM274.626 267.403C274.626 266.368 274.829 265.45 275.236 264.649C275.655 263.848 276.215 263.232 276.918 262.801C277.632 262.37 278.427 262.154 279.302 262.154C280.065 262.154 280.731 262.308 281.297 262.616C281.876 262.924 282.338 263.312 282.683 263.781V262.321H285.289V272.559H282.683V271.062C282.351 271.542 281.889 271.943 281.297 272.263C280.718 272.571 280.047 272.725 279.283 272.725C278.421 272.725 277.632 272.503 276.918 272.06C276.215 271.616 275.655 270.994 275.236 270.193C274.829 269.38 274.626 268.45 274.626 267.403ZM282.683 267.44C282.683 266.811 282.56 266.275 282.314 265.832C282.067 265.376 281.735 265.031 281.316 264.797C280.897 264.551 280.447 264.427 279.967 264.427C279.486 264.427 279.043 264.544 278.636 264.779C278.23 265.013 277.897 265.358 277.638 265.813C277.392 266.257 277.269 266.787 277.269 267.403C277.269 268.019 277.392 268.561 277.638 269.029C277.897 269.485 278.23 269.836 278.636 270.082C279.055 270.329 279.499 270.452 279.967 270.452C280.447 270.452 280.897 270.335 281.316 270.101C281.735 269.854 282.067 269.509 282.314 269.066C282.56 268.61 282.683 268.068 282.683 267.44ZM293.304 262.173C294.524 262.173 295.51 262.561 296.261 263.337C297.013 264.101 297.389 265.173 297.389 266.553V272.559H294.801V266.904C294.801 266.091 294.598 265.468 294.192 265.037C293.785 264.594 293.231 264.372 292.528 264.372C291.814 264.372 291.247 264.594 290.828 265.037C290.422 265.468 290.218 266.091 290.218 266.904V272.559H287.631V262.321H290.218V263.596C290.563 263.152 291.001 262.807 291.53 262.561C292.072 262.302 292.664 262.173 293.304 262.173ZM82.5811 291.403C82.5811 290.368 82.7844 289.45 83.1909 288.649C83.6098 287.848 84.1704 287.232 84.8726 286.801C85.5872 286.37 86.3818 286.154 87.2565 286.154C88.0204 286.154 88.6856 286.308 89.2524 286.616C89.8314 286.924 90.2934 287.312 90.6384 287.781V286.321H93.244V296.559H90.6384V295.062C90.3057 295.542 89.8437 295.943 89.2524 296.263C88.6733 296.571 88.0019 296.725 87.238 296.725C86.3756 296.725 85.5872 296.503 84.8726 296.06C84.1704 295.616 83.6098 294.994 83.1909 294.193C82.7844 293.38 82.5811 292.45 82.5811 291.403ZM90.6384 291.44C90.6384 290.811 90.5152 290.275 90.2688 289.832C90.0224 289.376 89.6897 289.031 89.2708 288.797C88.852 288.551 88.4023 288.427 87.9218 288.427C87.4413 288.427 86.9978 288.544 86.5912 288.779C86.1847 289.013 85.852 289.358 85.5933 289.813C85.3469 290.257 85.2237 290.787 85.2237 291.403C85.2237 292.019 85.3469 292.561 85.5933 293.029C85.852 293.485 86.1847 293.836 86.5912 294.082C87.0101 294.329 87.4536 294.452 87.9218 294.452C88.4023 294.452 88.852 294.335 89.2708 294.101C89.6897 293.854 90.0224 293.509 90.2688 293.066C90.5152 292.61 90.6384 292.068 90.6384 291.44ZM100.28 288.446H98.4875V296.559H95.8633V288.446H94.6991V286.321H95.8633V285.803C95.8633 284.547 96.2206 283.623 96.9351 283.031C97.6497 282.44 98.7277 282.163 100.169 282.2V284.38C99.5408 284.368 99.1035 284.473 98.8571 284.694C98.6107 284.916 98.4875 285.317 98.4875 285.896V286.321H100.28V288.446ZM106.466 288.446H104.673V296.559H102.049V288.446H100.885V286.321H102.049V285.803C102.049 284.547 102.406 283.623 103.121 283.031C103.835 282.44 104.913 282.163 106.355 282.2V284.38C105.727 284.368 105.289 284.473 105.043 284.694C104.796 284.916 104.673 285.317 104.673 285.896V286.321H106.466V288.446ZM109.27 285.101C108.814 285.101 108.432 284.959 108.124 284.676C107.828 284.38 107.68 284.017 107.68 283.586C107.68 283.154 107.828 282.797 108.124 282.514C108.432 282.218 108.814 282.07 109.27 282.07C109.726 282.07 110.101 282.218 110.397 282.514C110.705 282.797 110.859 283.154 110.859 283.586C110.859 284.017 110.705 284.38 110.397 284.676C110.101 284.959 109.726 285.101 109.27 285.101ZM110.545 286.321V296.559H107.958V286.321H110.545ZM115.503 287.91C115.836 287.368 116.267 286.943 116.797 286.635C117.339 286.327 117.955 286.173 118.645 286.173V288.889H117.961C117.148 288.889 116.532 289.08 116.113 289.462C115.707 289.844 115.503 290.509 115.503 291.458V296.559H112.916V286.321H115.503V287.91ZM132.917 286.173C134.174 286.173 135.184 286.561 135.948 287.337C136.724 288.101 137.112 289.173 137.112 290.553V296.559H134.525V290.904C134.525 290.103 134.321 289.493 133.915 289.074C133.508 288.643 132.954 288.427 132.252 288.427C131.549 288.427 130.989 288.643 130.57 289.074C130.163 289.493 129.96 290.103 129.96 290.904V296.559H127.373V290.904C127.373 290.103 127.17 289.493 126.763 289.074C126.357 288.643 125.802 288.427 125.1 288.427C124.385 288.427 123.819 288.643 123.4 289.074C122.993 289.493 122.79 290.103 122.79 290.904V296.559H120.203V286.321H122.79V287.559C123.123 287.128 123.548 286.789 124.065 286.542C124.595 286.296 125.174 286.173 125.802 286.173C126.603 286.173 127.318 286.345 127.946 286.69C128.574 287.023 129.061 287.503 129.406 288.132C129.738 287.54 130.219 287.066 130.847 286.709C131.488 286.351 132.178 286.173 132.917 286.173ZM138.717 291.403C138.717 290.368 138.92 289.45 139.327 288.649C139.746 287.848 140.306 287.232 141.008 286.801C141.723 286.37 142.518 286.154 143.392 286.154C144.156 286.154 144.822 286.308 145.388 286.616C145.967 286.924 146.429 287.312 146.774 287.781V286.321H149.38V296.559H146.774V295.062C146.442 295.542 145.98 295.943 145.388 296.263C144.809 296.571 144.138 296.725 143.374 296.725C142.512 296.725 141.723 296.503 141.008 296.06C140.306 295.616 139.746 294.994 139.327 294.193C138.92 293.38 138.717 292.45 138.717 291.403ZM146.774 291.44C146.774 290.811 146.651 290.275 146.405 289.832C146.158 289.376 145.826 289.031 145.407 288.797C144.988 288.551 144.538 288.427 144.058 288.427C143.577 288.427 143.134 288.544 142.727 288.779C142.321 289.013 141.988 289.358 141.729 289.813C141.483 290.257 141.36 290.787 141.36 291.403C141.36 292.019 141.483 292.561 141.729 293.029C141.988 293.485 142.321 293.836 142.727 294.082C143.146 294.329 143.59 294.452 144.058 294.452C144.538 294.452 144.988 294.335 145.407 294.101C145.826 293.854 146.158 293.509 146.405 293.066C146.651 292.61 146.774 292.068 146.774 291.44ZM154.734 288.446V293.399C154.734 293.743 154.814 293.996 154.974 294.156C155.147 294.304 155.43 294.378 155.825 294.378H157.026V296.559H155.399C153.219 296.559 152.129 295.499 152.129 293.38V288.446H150.909V286.321H152.129V283.789H154.734V286.321H157.026V288.446H154.734ZM160.014 285.101C159.558 285.101 159.176 284.959 158.868 284.676C158.572 284.38 158.425 284.017 158.425 283.586C158.425 283.154 158.572 282.797 158.868 282.514C159.176 282.218 159.558 282.07 160.014 282.07C160.47 282.07 160.845 282.218 161.141 282.514C161.449 282.797 161.603 283.154 161.603 283.586C161.603 284.017 161.449 284.38 161.141 284.676C160.845 284.959 160.47 285.101 160.014 285.101ZM161.289 286.321V296.559H158.702V286.321H161.289ZM167.929 294.175L170.516 286.321H173.27L169.482 296.559H166.34L162.57 286.321H165.342L167.929 294.175ZM184.055 291.218C184.055 291.587 184.031 291.92 183.982 292.216H176.497C176.559 292.955 176.817 293.534 177.273 293.953C177.729 294.372 178.29 294.581 178.955 294.581C179.916 294.581 180.6 294.169 181.006 293.343H183.797C183.501 294.329 182.934 295.142 182.097 295.782C181.259 296.411 180.23 296.725 179.01 296.725C178.025 296.725 177.138 296.509 176.349 296.078C175.573 295.635 174.963 295.012 174.52 294.212C174.089 293.411 173.873 292.487 173.873 291.44C173.873 290.38 174.089 289.45 174.52 288.649C174.951 287.848 175.555 287.232 176.331 286.801C177.107 286.37 178 286.154 179.01 286.154C179.984 286.154 180.852 286.364 181.616 286.783C182.392 287.202 182.99 287.799 183.409 288.575C183.84 289.339 184.055 290.22 184.055 291.218ZM181.376 290.479C181.364 289.813 181.123 289.284 180.655 288.889C180.187 288.483 179.614 288.28 178.937 288.28C178.296 288.28 177.754 288.477 177.31 288.871C176.879 289.253 176.614 289.789 176.516 290.479H181.376ZM193.895 296.725C193.058 296.725 192.306 296.577 191.641 296.281C190.976 295.973 190.446 295.561 190.052 295.043C189.67 294.526 189.46 293.953 189.423 293.325H192.029C192.078 293.719 192.269 294.045 192.602 294.304C192.947 294.563 193.372 294.692 193.877 294.692C194.37 294.692 194.752 294.594 195.023 294.396C195.306 294.199 195.448 293.947 195.448 293.639C195.448 293.306 195.275 293.06 194.93 292.9C194.598 292.727 194.062 292.542 193.323 292.345C192.559 292.16 191.93 291.969 191.438 291.772C190.957 291.575 190.538 291.273 190.181 290.867C189.836 290.46 189.664 289.912 189.664 289.222C189.664 288.655 189.824 288.138 190.144 287.67C190.477 287.202 190.945 286.832 191.549 286.561C192.165 286.29 192.885 286.154 193.711 286.154C194.93 286.154 195.904 286.462 196.631 287.078C197.357 287.682 197.758 288.501 197.832 289.536H195.355C195.318 289.13 195.146 288.809 194.838 288.575C194.542 288.329 194.142 288.206 193.637 288.206C193.169 288.206 192.805 288.292 192.546 288.464C192.3 288.637 192.177 288.877 192.177 289.185C192.177 289.53 192.349 289.795 192.694 289.98C193.039 290.152 193.575 290.331 194.302 290.516C195.041 290.7 195.651 290.891 196.132 291.089C196.612 291.286 197.025 291.594 197.37 292.013C197.727 292.419 197.912 292.961 197.924 293.639C197.924 294.23 197.758 294.76 197.425 295.228C197.105 295.696 196.637 296.066 196.021 296.337C195.417 296.596 194.709 296.725 193.895 296.725ZM209.38 291.218C209.38 291.587 209.356 291.92 209.306 292.216H201.822C201.884 292.955 202.142 293.534 202.598 293.953C203.054 294.372 203.615 294.581 204.28 294.581C205.241 294.581 205.925 294.169 206.331 293.343H209.122C208.826 294.329 208.259 295.142 207.421 295.782C206.584 296.411 205.555 296.725 204.335 296.725C203.35 296.725 202.463 296.509 201.674 296.078C200.898 295.635 200.288 295.012 199.845 294.212C199.413 293.411 199.198 292.487 199.198 291.44C199.198 290.38 199.413 289.45 199.845 288.649C200.276 287.848 200.879 287.232 201.656 286.801C202.432 286.37 203.325 286.154 204.335 286.154C205.309 286.154 206.177 286.364 206.941 286.783C207.717 287.202 208.315 287.799 208.733 288.575C209.165 289.339 209.38 290.22 209.38 291.218ZM206.701 290.479C206.688 289.813 206.448 289.284 205.98 288.889C205.512 288.483 204.939 288.28 204.261 288.28C203.621 288.28 203.079 288.477 202.635 288.871C202.204 289.253 201.939 289.789 201.84 290.479H206.701ZM216.757 286.173C217.977 286.173 218.963 286.561 219.714 287.337C220.466 288.101 220.841 289.173 220.841 290.553V296.559H218.254V290.904C218.254 290.091 218.051 289.468 217.644 289.037C217.238 288.594 216.683 288.372 215.981 288.372C215.267 288.372 214.7 288.594 214.281 289.037C213.874 289.468 213.671 290.091 213.671 290.904V296.559H211.084V286.321H213.671V287.596C214.016 287.152 214.453 286.807 214.983 286.561C215.525 286.302 216.117 286.173 216.757 286.173ZM226.129 288.446V293.399C226.129 293.743 226.209 293.996 226.369 294.156C226.542 294.304 226.825 294.378 227.219 294.378H228.421V296.559H226.794C224.614 296.559 223.523 295.499 223.523 293.38V288.446H222.304V286.321H223.523V283.789H226.129V286.321H228.421V288.446H226.129ZM239.614 291.218C239.614 291.587 239.589 291.92 239.54 292.216H232.056C232.117 292.955 232.376 293.534 232.832 293.953C233.288 294.372 233.848 294.581 234.513 294.581C235.474 294.581 236.158 294.169 236.565 293.343H239.355C239.059 294.329 238.493 295.142 237.655 295.782C236.817 296.411 235.788 296.725 234.569 296.725C233.583 296.725 232.696 296.509 231.908 296.078C231.132 295.635 230.522 295.012 230.078 294.212C229.647 293.411 229.431 292.487 229.431 291.44C229.431 290.38 229.647 289.45 230.078 288.649C230.509 287.848 231.113 287.232 231.889 286.801C232.665 286.37 233.559 286.154 234.569 286.154C235.542 286.154 236.411 286.364 237.174 286.783C237.951 287.202 238.548 287.799 238.967 288.575C239.398 289.339 239.614 290.22 239.614 291.218ZM236.934 290.479C236.922 289.813 236.682 289.284 236.214 288.889C235.745 288.483 235.172 288.28 234.495 288.28C233.854 288.28 233.312 288.477 232.869 288.871C232.437 289.253 232.173 289.789 232.074 290.479H236.934ZM246.991 286.173C248.21 286.173 249.196 286.561 249.948 287.337C250.699 288.101 251.075 289.173 251.075 290.553V296.559H248.488V290.904C248.488 290.091 248.284 289.468 247.878 289.037C247.471 288.594 246.917 288.372 246.215 288.372C245.5 288.372 244.933 288.594 244.514 289.037C244.108 289.468 243.905 290.091 243.905 290.904V296.559H241.317V286.321H243.905V287.596C244.25 287.152 244.687 286.807 245.217 286.561C245.759 286.302 246.35 286.173 246.991 286.173ZM252.685 291.44C252.685 290.38 252.901 289.456 253.332 288.668C253.763 287.867 254.361 287.251 255.124 286.82C255.888 286.376 256.763 286.154 257.749 286.154C259.018 286.154 260.065 286.475 260.89 287.115C261.728 287.744 262.289 288.631 262.572 289.776H259.781C259.634 289.333 259.381 288.988 259.024 288.742C258.679 288.483 258.248 288.353 257.73 288.353C256.991 288.353 256.406 288.625 255.975 289.167C255.543 289.696 255.328 290.454 255.328 291.44C255.328 292.413 255.543 293.171 255.975 293.713C256.406 294.242 256.991 294.507 257.73 294.507C258.777 294.507 259.461 294.039 259.781 293.103H262.572C262.289 294.212 261.728 295.093 260.89 295.745C260.052 296.398 259.005 296.725 257.749 296.725C256.763 296.725 255.888 296.509 255.124 296.078C254.361 295.635 253.763 295.019 253.332 294.23C252.901 293.429 252.685 292.499 252.685 291.44ZM273.8 291.218C273.8 291.587 273.775 291.92 273.726 292.216H266.241C266.303 292.955 266.562 293.534 267.018 293.953C267.473 294.372 268.034 294.581 268.699 294.581C269.66 294.581 270.344 294.169 270.75 293.343H273.541C273.245 294.329 272.679 295.142 271.841 295.782C271.003 296.411 269.974 296.725 268.755 296.725C267.769 296.725 266.882 296.509 266.094 296.078C265.317 295.635 264.708 295.012 264.264 294.212C263.833 293.411 263.617 292.487 263.617 291.44C263.617 290.38 263.833 289.45 264.264 288.649C264.695 287.848 265.299 287.232 266.075 286.801C266.851 286.37 267.744 286.154 268.755 286.154C269.728 286.154 270.596 286.364 271.36 286.783C272.136 287.202 272.734 287.799 273.153 288.575C273.584 289.339 273.8 290.22 273.8 291.218ZM271.12 290.479C271.108 289.813 270.868 289.284 270.399 288.889C269.931 288.483 269.358 288.28 268.681 288.28C268.04 288.28 267.498 288.477 267.054 288.871C266.623 289.253 266.358 289.789 266.26 290.479H271.12ZM276.649 296.688C276.181 296.688 275.793 296.546 275.485 296.263C275.189 295.967 275.041 295.604 275.041 295.173C275.041 294.741 275.189 294.384 275.485 294.101C275.793 293.805 276.181 293.657 276.649 293.657C277.105 293.657 277.481 293.805 277.776 294.101C278.072 294.384 278.22 294.741 278.22 295.173C278.22 295.604 278.072 295.967 277.776 296.263C277.481 296.546 277.105 296.688 276.649 296.688Z" fill="#3949F5"/>
</g>
<g filter="url(#filter2_b_1813_9445)">
<rect x="32" y="135" width="297" height="190" fill="white" fill-opacity="0.2"/>
</g>
<path d="M256.677 43.4289C217.408 32.9139 107.779 13.7628 80.786 74.7935C52.5004 138.747 185.647 138.391 239.596 129.3C271.875 123.861 293.285 108.913 293.926 86.4208C294.478 67.057 262.756 29.445 196.706 33.0686" stroke="#4A3AFF" stroke-width="3" stroke-linecap="round"/>
</g>
</g>
<defs>
<filter id="filter0_dd_1813_9445" x="0" y="0" width="355" height="349" filterUnits="userSpaceOnUse" color-interpolation-filters="sRGB">
<feFlood flood-opacity="0" result="BackgroundImageFix"/>
<feColorMatrix in="SourceAlpha" type="matrix" values="0 0 0 0 0 0 0 0 0 0 0 0 0 0 0 0 0 0 127 0" result="hardAlpha"/>
<feOffset dx="-3" dy="4"/>
<feGaussianBlur stdDeviation="10"/>
<feComposite in2="hardAlpha" operator="out"/>
<feColorMatrix type="matrix" values="0 0 0 0 0.654902 0 0 0 0 0.682353 0 0 0 0 1 0 0 0 0.15 0"/>
<feBlend mode="normal" in2="BackgroundImageFix" result="effect1_dropShadow_1813_9445"/>
<feColorMatrix in="SourceAlpha" type="matrix" values="0 0 0 0 0 0 0 0 0 0 0 0 0 0 0 0 0 0 127 0" result="hardAlpha"/>
<feOffset/>
<feGaussianBlur stdDeviation="0.5"/>
<feComposite in2="hardAlpha" operator="out"/>
<feColorMatrix type="matrix" values="0 0 0 0 0.654902 0 0 0 0 0.682353 0 0 0 0 1 0 0 0 0.5 0"/>
<feBlend mode="normal" in2="effect1_dropShadow_1813_9445" result="effect2_dropShadow_1813_9445"/>
<feBlend mode="normal" in="SourceGraphic" in2="effect2_dropShadow_1813_9445" result="shape"/>
</filter>
<filter id="filter1_dd_1813_9445" x="23.8399" y="187.721" width="313.32" height="530.88" filterUnits="userSpaceOnUse" color-interpolation-filters="sRGB">
<feFlood flood-opacity="0" result="BackgroundImageFix"/>
<feColorMatrix in="SourceAlpha" type="matrix" values="0 0 0 0 0 0 0 0 0 0 0 0 0 0 0 0 0 0 127 0" result="hardAlpha"/>
<feOffset dy="1.68"/>
<feGaussianBlur stdDeviation="6.3"/>
<feColorMatrix type="matrix" values="0 0 0 0 0.654902 0 0 0 0 0.682353 0 0 0 0 1 0 0 0 0.2 0"/>
<feBlend mode="normal" in2="BackgroundImageFix" result="effect1_dropShadow_1813_9445"/>
<feColorMatrix in="SourceAlpha" type="matrix" values="0 0 0 0 0 0 0 0 0 0 0 0 0 0 0 0 0 0 127 0" result="hardAlpha"/>
<feOffset/>
<feGaussianBlur stdDeviation="0.42"/>
<feComposite in2="hardAlpha" operator="out"/>
<feColorMatrix type="matrix" values="0 0 0 0 0.654902 0 0 0 0 0.682353 0 0 0 0 1 0 0 0 1 0"/>
<feBlend mode="normal" in2="effect1_dropShadow_1813_9445" result="effect2_dropShadow_1813_9445"/>
<feBlend mode="normal" in="SourceGraphic" in2="effect2_dropShadow_1813_9445" result="shape"/>
</filter>
<filter id="filter2_b_1813_9445" x="27" y="130" width="307" height="200" filterUnits="userSpaceOnUse" color-interpolation-filters="sRGB">
<feFlood flood-opacity="0" result="BackgroundImageFix"/>
<feGaussianBlur in="BackgroundImageFix" stdDeviation="2.5"/>
<feComposite in2="SourceAlpha" operator="in" result="effect1_backgroundBlur_1813_9445"/>
<feBlend mode="normal" in="SourceGraphic" in2="effect1_backgroundBlur_1813_9445" result="shape"/>
</filter>
<clipPath id="clip0_1813_9445">
<rect x="23" y="16" width="315" height="309" rx="5" fill="white"/>
</clipPath>
</defs>
</svg>
