<svg id="picture_3_" data-name="picture (3)" xmlns="http://www.w3.org/2000/svg" width="15.909" height="15.909" viewBox="0 0 15.909 15.909">
  <path id="Tracé_12766" data-name="Tracé 12766" d="M12.595,0H3.314A3.318,3.318,0,0,0,0,3.314v9.28a3.318,3.318,0,0,0,3.314,3.314h9.28a3.318,3.318,0,0,0,3.314-3.314V3.314A3.318,3.318,0,0,0,12.595,0ZM3.314,1.326h9.28a1.989,1.989,0,0,1,1.989,1.989v9.28a1.956,1.956,0,0,1-.2.852L8.311,7.373a3.314,3.314,0,0,0-4.688,0l-2.3,2.3V3.314A1.989,1.989,0,0,1,3.314,1.326Zm0,13.258a1.989,1.989,0,0,1-1.989-1.989V11.543L4.559,8.31a1.989,1.989,0,0,1,2.813,0l6.074,6.075a1.956,1.956,0,0,1-.852.2Z" fill="#0e1226"/>
  <path id="Tracé_12767" data-name="Tracé 12767" d="M14.82,8.14A2.32,2.32,0,1,0,12.5,5.82,2.32,2.32,0,0,0,14.82,8.14Zm0-3.314a.994.994,0,1,1-.994.994A.994.994,0,0,1,14.82,4.826Z" transform="translate(-4.214 -1.18)" fill="#0e1226"/>
</svg>
