<svg xmlns="http://www.w3.org/2000/svg" width="24" height="24" viewBox="0 0 24 24">
  <g id="profil" transform="translate(17.439 1.001)">
    <path id="Union_2" data-name="Union 2" d="M3.515,20.486A12,12,0,0,1,20.485,3.514,12,12,0,0,1,3.515,20.486ZM6.983,20.3v.56a10.266,10.266,0,0,0,10.034,0V20.3a5.017,5.017,0,1,0-10.034,0Zm11.974-.86c.092-.086.183-.174.272-.262A10.167,10.167,0,0,0,12,1.833,10.16,10.16,0,0,0,4.772,19.176c.088.088.179.176.272.262a7.01,7.01,0,0,1,13.914,0ZM7.245,7.765A4.755,4.755,0,1,1,12,12.519,4.761,4.761,0,0,1,7.245,7.765Zm1.993,0A2.762,2.762,0,1,0,12,5,2.765,2.765,0,0,0,9.238,7.764Z" transform="translate(-17.439 -1.001)" fill="#181d63"/>
  </g>
</svg>
