<svg xmlns="http://www.w3.org/2000/svg" width="43.958" height="43.96" viewBox="0 0 43.958 43.96">
  <g id="profil" transform="translate(13.918 -2.519)">
    <path id="Union_1" data-name="Union 1" d="M0,21.98A21.979,21.979,0,1,1,21.98,43.96,21.98,21.98,0,0,1,0,21.98ZM21.98,41.449a19.471,19.471,0,0,0,9.838-2.639V37.5a9.839,9.839,0,1,0-19.677,0V38.81A19.473,19.473,0,0,0,21.98,41.449Zm12.63-4.615q.623-.528,1.208-1.113A19.469,19.469,0,0,0,21.98,2.512,19.455,19.455,0,0,0,8.14,35.722q.584.584,1.208,1.113a12.649,12.649,0,0,1,25.263,0ZM13.547,14.06a8.433,8.433,0,1,1,8.433,8.432A8.433,8.433,0,0,1,13.547,14.06Zm2.811,0A5.622,5.622,0,1,0,21.98,8.437,5.622,5.622,0,0,0,16.357,14.06Z" transform="translate(-13.918 2.519)" fill="#181d63"/>
  </g>
</svg>
