<svg xmlns="http://www.w3.org/2000/svg" width="24" height="24" viewBox="0 0 24 24">
  <g id="Groupe_3814" data-name="Groupe 3814" transform="translate(-218.942 -792)">
    <path id="Rectangle_3822" data-name="Rectangle 3822" d="M3,1.9A1.1,1.1,0,0,0,1.9,3v.5A1.1,1.1,0,0,0,3,4.6H21a1.1,1.1,0,0,0,1.1-1.1V3A1.1,1.1,0,0,0,21,1.9H3M3,0H21a3,3,0,0,1,3,3v.5a3,3,0,0,1-3,3H3a3,3,0,0,1-3-3V3A3,3,0,0,1,3,0Z" transform="translate(218.942 809.5)" fill="#181d63"/>
    <path id="Rectangle_3823" data-name="Rectangle 3823" d="M3,1.9A1.1,1.1,0,0,0,1.9,3v.5A1.1,1.1,0,0,0,3,4.6H21a1.1,1.1,0,0,0,1.1-1.1V3A1.1,1.1,0,0,0,21,1.9H3M3,0H21a3,3,0,0,1,3,3v.5a3,3,0,0,1-3,3H3a3,3,0,0,1-3-3V3A3,3,0,0,1,3,0Z" transform="translate(218.942 800.85)" fill="#181d63"/>
    <path id="Rectangle_3824" data-name="Rectangle 3824" d="M3,1.9A1.1,1.1,0,0,0,1.9,3v.5A1.1,1.1,0,0,0,3,4.6H21a1.1,1.1,0,0,0,1.1-1.1V3A1.1,1.1,0,0,0,21,1.9H3M3,0H21a3,3,0,0,1,3,3v.5a3,3,0,0,1-3,3H3a3,3,0,0,1-3-3V3A3,3,0,0,1,3,0Z" transform="translate(218.942 792)" fill="#181d63"/>
  </g>
</svg>
