<svg id="svg" xmlns="http://www.w3.org/2000/svg" width="38.889" height="51.997" viewBox="0 0 38.889 51.997">
  <g id="Vrstva_x0020_1_22_">
    <path id="Tracé_12950" data-name="Tracé 12950" d="M106.523,0h17.4l14.727,15.365V45.233A6.764,6.764,0,0,1,131.884,52H106.523a6.764,6.764,0,0,1-6.764-6.764V6.764A6.764,6.764,0,0,1,106.523,0Z" transform="translate(-99.759 0)" fill="#f60" fill-rule="evenodd"/>
    <g id="Groupe_4418" data-name="Groupe 4418" transform="translate(6.631 0)">
      <path id="Tracé_12951" data-name="Tracé 12951" d="M467.212,0V15.239H481.96Z" transform="translate(-449.702)" fill="#fff" fill-rule="evenodd" opacity="0.302"/>
      <path id="Tracé_12952" data-name="Tracé 12952" d="M204.337,417.485a3.806,3.806,0,0,1-2.488-.869,2.981,2.981,0,0,1-1.157-2.145l2.061-.6a1.759,1.759,0,0,0,.568,1.157,1.616,1.616,0,0,0,1.122.456,1.428,1.428,0,0,0,.848-.231.716.716,0,0,0,.322-.6.684.684,0,0,0-.259-.526,1.946,1.946,0,0,0-.659-.343c-.273-.091-.582-.182-.911-.273a6.764,6.764,0,0,1-1-.343,5.121,5.121,0,0,1-.9-.512,2.085,2.085,0,0,1-.666-.827,2.84,2.84,0,0,1-.252-1.241,2.359,2.359,0,0,1,.981-1.921,3.766,3.766,0,0,1,2.383-.771,4.276,4.276,0,0,1,2.4.673,2.8,2.8,0,0,1,1.283,1.752l-2.145.9a1.758,1.758,0,0,0-.554-.953,1.428,1.428,0,0,0-.988-.357,1.2,1.2,0,0,0-.715.182.56.56,0,0,0-.266.484.544.544,0,0,0,.351.484,2.9,2.9,0,0,0,.862.28,7.353,7.353,0,0,1,1.122.287,5.61,5.61,0,0,1,1.122.5,2.307,2.307,0,0,1,.862.925,3.184,3.184,0,0,1,.35,1.535,2.574,2.574,0,0,1-1.009,2.11A4.186,4.186,0,0,1,204.337,417.485Zm7.129-.105-3.308-9.386H210.6l2,6.491,2.026-6.491h2.425l-3.308,9.386Zm10.248.105a4.724,4.724,0,0,1-3.308-1.255,4.6,4.6,0,0,1-1.36-3.54,4.862,4.862,0,0,1,.7-2.657,4.194,4.194,0,0,1,1.773-1.626,5.479,5.479,0,0,1,2.39-.519,4.866,4.866,0,0,1,2.986.862,3.714,3.714,0,0,1,1.43,2.425l-2.362.477a2.045,2.045,0,0,0-2.075-1.724,2.292,2.292,0,0,0-1.78.743,3.351,3.351,0,0,0-.007,4.038,2.261,2.261,0,0,0,1.745.743,2.372,2.372,0,0,0,1.381-.386,1.484,1.484,0,0,0,.666-1H221.58v-1.879h4.528v5.187h-2.187v-.827a1.9,1.9,0,0,1-.883.68A3.382,3.382,0,0,1,221.714,417.485Z" transform="translate(-200.692 -381.092)" fill="#fff"/>
    </g>
  </g>
</svg>
