<svg id="thumbs-up" xmlns="http://www.w3.org/2000/svg" width="12" height="10.285" viewBox="0 0 12 10.285">
  <path id="Tracé_12874" data-name="Tracé 12874" d="M15.413,4.073a2.51,2.51,0,0,0-1.893-.86h-2l.169-1.02a1.524,1.524,0,0,0-2.871-.918L8,2.921v7.79h5.169a2.518,2.518,0,0,0,2.484-2.15l.354-2.5a2.49,2.49,0,0,0-.594-1.989Z" transform="translate(-4.031 -0.426)" fill="#4ad3b0"/>
  <path id="Tracé_12875" data-name="Tracé 12875" d="M0,8.509v2.509a2.512,2.512,0,0,0,2.509,2.509h.5V6h-.5A2.512,2.512,0,0,0,0,8.509Z" transform="translate(0 -3.242)" fill="#4ad3b0"/>
</svg>
