<svg id="trash_2_" data-name="trash (2)" xmlns="http://www.w3.org/2000/svg" width="12.5" height="15" viewBox="0 0 12.5 15">
  <path id="Tracé_12761" data-name="Tracé 12761" d="M13.875,2.5H11.938A3.131,3.131,0,0,0,8.875,0H7.625A3.131,3.131,0,0,0,4.563,2.5H2.625a.625.625,0,0,0,0,1.25H3.25v8.125A3.129,3.129,0,0,0,6.375,15h3.75a3.129,3.129,0,0,0,3.125-3.125V3.75h.625a.625.625,0,0,0,0-1.25ZM7.625,1.25h1.25A1.879,1.879,0,0,1,10.643,2.5H5.857A1.879,1.879,0,0,1,7.625,1.25ZM12,11.875a1.875,1.875,0,0,1-1.875,1.875H6.375A1.875,1.875,0,0,1,4.5,11.875V3.75H12Z" transform="translate(-2)" fill="#0e1226"/>
  <path id="Tracé_12762" data-name="Tracé 12762" d="M9.625,15a.625.625,0,0,0,.625-.625v-3.75a.625.625,0,0,0-1.25,0v3.75A.625.625,0,0,0,9.625,15Z" transform="translate(-4.625 -3.75)" fill="#0e1226"/>
  <path id="Tracé_12763" data-name="Tracé 12763" d="M13.625,15a.625.625,0,0,0,.625-.625v-3.75a.625.625,0,0,0-1.25,0v3.75A.625.625,0,0,0,13.625,15Z" transform="translate(-6.125 -3.75)" fill="#0e1226"/>
</svg>
